<svg width="576" height="176" viewBox="0 0 576 176" fill="none" xmlns="http://www.w3.org/2000/svg">
<path d="M554.47 44C566.781 44 576 34.8561 576 23.5295C576 12.1439 566.781 3 554.47 3C542.219 3 533 12.1439 533 23.5295C533 34.8561 542.219 44 554.47 44ZM554.47 38.9266C545.251 38.9266 538.944 32.2014 538.944 23.5295C538.944 14.7986 545.251 8.13237 554.47 8.13237C563.81 8.13237 570.056 14.7986 570.056 23.5295C570.056 32.2014 563.81 38.9266 554.47 38.9266ZM559.261 24.8863C558.836 27.364 556.956 29.0748 554.591 29.0748C551.68 29.0748 549.86 26.8331 549.86 23.5295C549.86 20.2259 551.68 18.0432 554.591 18.0432C557.017 18.0432 558.836 19.695 559.261 22.1727H565.69C565.023 16.5683 560.474 12.7338 554.53 12.7338C548.465 12.7338 543.614 17.4532 543.614 23.5295C543.614 29.6058 548.465 34.3252 554.53 34.3252C560.474 34.3252 565.023 30.5496 565.69 24.8863H559.261Z" fill="black"/>
<path d="M0.552002 173H46.65C80.346 173 99.768 156.62 99.768 124.796C99.768 103.736 92.046 88.76 77.304 83.846V82.442C88.77 78.464 96.258 64.19 96.258 47.342C96.258 19.964 84.09 2.41397 50.862 2.41397H0.552002V173ZM42.438 71.678V34.706H46.416C53.436 34.706 57.18 40.088 57.18 52.958C57.18 64.19 54.606 71.678 46.416 71.678H42.438ZM42.438 140.006V100.694H46.416C53.67 100.694 58.35 106.31 58.35 120.35C58.35 132.752 55.308 140.006 46.182 140.006H42.438Z" fill="black"/>
<path d="M159.473 175.106C201.593 175.106 213.527 141.176 213.527 87.59C213.527 34.004 201.593 0.0739746 159.473 0.0739746C117.587 0.0739746 105.419 33.77 105.419 87.59C105.419 141.41 117.587 175.106 159.473 175.106ZM159.473 138.602C150.581 138.602 147.773 125.732 147.773 87.59C147.773 52.49 149.645 36.578 159.473 36.578C168.365 36.578 171.407 49.214 171.407 87.59C171.407 122.222 169.535 138.602 159.473 138.602Z" fill="black"/>
<path d="M223.355 173H265.241V114.968H271.091C279.047 114.968 279.281 124.796 279.281 132.986V158.258C279.281 161.3 279.749 168.32 281.153 173H323.507C322.571 168.086 321.869 162.938 321.869 155.684V128.306C321.869 111.458 317.891 96.248 304.787 93.908V92.27C316.721 88.058 324.443 74.252 324.443 52.022C324.443 13.88 302.681 2.41397 270.389 2.41397H223.355V173ZM265.241 82.208V39.152H268.049C278.111 39.152 282.323 44.768 282.323 60.68C282.323 74.486 279.749 82.208 268.283 82.208H265.241Z" fill="black"/>
<path d="M333.956 173H411.644V136.262H375.374V103.034H408.368V68.87H375.374V39.152H411.644V2.41397H333.956V173Z" fill="black"/>
<path d="M422.392 173H460.3C515.056 173 526.756 138.134 526.756 87.824C526.756 24.644 504.76 2.41397 460.3 2.41397H422.392V173ZM464.278 136.262V39.152H467.788C480.424 39.152 484.636 50.384 484.636 86.888C484.636 119.882 482.296 136.262 467.788 136.262H464.278Z" fill="black"/>
</svg>
