<svg width="248" height="248" viewBox="0 0 248 248" fill="none" xmlns="http://www.w3.org/2000/svg">
<g clip-path="url(#clip0_739_31)">
<path d="M124 24.8C178.808 24.8 223.2 69.192 223.2 124C223.2 178.808 178.808 223.2 124 223.2C69.192 223.2 24.8 178.808 24.8 124C24.8 69.192 69.192 24.8 124 24.8ZM124 0C55.552 0 0 55.552 0 124C0 192.448 55.552 248 124 248C192.448 248 248 192.448 248 124C248 55.552 192.448 0 124 0Z" fill="black"/>
<path d="M124 74.3996C130.944 74.3996 137.392 75.8876 143.344 78.3676C149.296 80.8476 154.504 84.5676 159.216 89.0316C163.68 93.4956 167.4 98.9516 169.88 104.904L192.696 95.2316C188.976 86.3036 183.52 78.3676 176.824 71.6716C170.128 64.9756 162.192 59.5196 153.264 55.7996C144.088 51.5836 134.168 49.5996 124 49.5996C113.832 49.5996 103.912 51.5836 94.9836 55.5516C86.0556 59.2716 78.1196 64.7276 71.4236 71.4236C64.7276 78.1196 59.2716 86.0556 55.5516 94.9836C51.5836 103.912 49.5996 113.832 49.5996 124C49.5996 134.168 51.5836 144.088 55.5516 153.016C59.2716 161.944 64.7276 169.88 71.4236 176.576C78.1196 183.272 86.0556 188.728 94.9836 192.448C103.912 196.416 113.832 198.4 124 198.4C134.168 198.4 144.088 196.416 153.016 192.448C161.944 188.728 169.88 183.272 176.576 176.576C183.272 169.88 188.728 161.944 192.448 153.016L169.632 143.344C167.152 149.296 163.432 154.504 158.968 159.216C154.504 163.68 149.048 167.4 143.096 169.88C137.144 172.36 130.944 173.6 124 173.6C117.056 173.6 110.608 172.112 104.656 169.632C98.7036 167.152 93.4956 163.432 88.7836 158.968C84.3196 154.504 80.5996 149.048 78.1196 143.096C75.6396 137.144 74.1516 130.696 74.1516 123.752C74.1516 116.808 75.6396 110.36 78.1196 104.408C80.5996 98.4556 84.3196 93.2476 88.7836 88.5356C93.2476 83.8236 98.7036 80.3516 104.656 77.8716C110.608 75.8876 117.056 74.3996 124 74.3996Z" fill="black"/>
</g>
<defs>
<clipPath id="clip0_739_31">
<rect width="248" height="248" fill="white"/>
</clipPath>
</defs>
</svg>
