<svg width="411.5" height="102.9" version="1.1" viewBox="0 0 411.5 102.9" xmlns="http://www.w3.org/2000/svg">
                    <path d="m406.9 38.4v20.2h-25v-20.2h-4.61v46.06h4.61v-21.52h25v21.52h4.61v-46.06zm-56.09 46.85a22.57 22.57 0 0 0 19.94-11.39l-4.08-2.3a17.68 17.68 0 0 1-15.86 9.21c-11.64 0-19.54-8.62-19.54-19.34s7.9-19.35 19.54-19.35a17.69 17.69 0 0 1 15.86 9.22l4.08-2.37a22.67 22.67 0 0 0-19.94-11.32c-14.14 0-24.14 10.66-24.14 23.82s10 23.82 24.14 23.82zm-51.45-5.14v-16.71h20.4v-4.34h-20.4v-16.32h22.04v-4.34h-26.64v46.06h26.97v-4.35zm-10.16-41.71h-32.9v4.34h14.14v41.72h4.61v-41.72h14.15zm-34.63 23.03a23.92 23.92 0 1 0-28.45 23.57v5.64h9v-5.64a23.74 23.74 0 0 0 19.45-23.57zm-9.08 0c0 7.15-4.28 12.61-10.36 14.42v-12.91h-9v12.91c-6.08-1.81-10.36-7.27-10.36-14.42 0-8.88 6.51-15.13 14.87-15.13s14.86 6.25 14.86 15.13zm-54.34-23.03v28.09l-19.74-28.09h-6.9v46.06h9.08v-28.16l19.73 28.16h6.91v-46.06zm-31.36 0h-10.26l-10 19.21-10-19.21h-10.27l15.72 28.09v17.97h9.02v-17.97zm-53.84 37.37v-37.37h-9.08v46.06h26.64v-8.69z" fill="#fff"/>
                    <path d="m15.12 0 9.221 8.08 1.141 2.34c-3.73 11.07-1.65 24.58-1.65 24.58s-24 32.13-23.83 45.77c0.1 7.64 10.54 19.14 10.54 19.14s-5.429-13.32-5.189-18.64c0.23-2.22 7.65-14.49 7.65-14.49s8.54 10.22 17.68 10.62l6.1-4.65s-0.4666 0.04418-1.105 0.08594l11.85-1.406-6.65-0.8203 9.541-2.148-10.85-1.33-7.58 5.693c-4.514-0.3315-10.77-1.974-12.08-8.375-3.69-15.37 15.61-14.84 15.61-14.84s-0.3896-1.09-3.1-1.09a47.12 47.12 0 0 0-14.56 2.82c1.73-3.07 4.28-8.411 9.23-11.47s13.76-2.648 13.76-2.648l-1.209-1.521s-7.71 1.191-8.24 0.6309c-4.72-5.09-1.852-18.11-1.852-18.11l9.842 13.84 8.488-0.3301 14.18 10.45 1 10.13 7.229 8.82-3.318 0.6582-4.391-2.1 5.25 7.451-0.1895 3.27 6.26-7.779-7.83-11.13s-1.841-10.12-1.361-10.12-9.129-11.58-9.129-11.58l2.26-12.29-0.7793-1.42 3.068-3.9-2 0.3008-3.318 3.061-7.932 12.59-4.199 0.1094c-0.75-1.78-17.47-23-17.47-23l-5.5-4.35zm38.82 42.18-7.689 0.6504 2.58 1.391-10.14 4.869 6.5-0.7207 4.93 3.191 6.15 0.75 4.57 4.689-4.33-9.381v0.04102l-5.129-4.109s5.18-0.2912 5.18-0.7012zm15.12 28.96s-2.651 3.239-5.781 3.469c-8.73 0.67-17.34 1.531-17.34 1.531l-4.17 15.17 5.361-4.6 7.42 16.23-2.73-23.57c1.01-0.31 7.529-0.8195 12.53-2.439 2.78-0.93 4.711-5.789 4.711-5.789z" fill="#47e530"/>
                </svg>