<svg width="1160" height="495" viewBox="0 0 1160 495" fill="none" xmlns="http://www.w3.org/2000/svg">
<rect width="1160" height="495" fill="#FDF050"/>
<path d="M31.1968 65V33.6528H39.2383V65H31.1968ZM41.6528 65V33.6528H49.7783L53.1377 49.2529H53.4316L53.0537 40.2666V33.6528H60.1084V65H52.0669L48.5815 49.6099H48.3296L48.7075 58.2393V65H41.6528ZM71.5303 65.3779C70.0885 65.3779 68.8218 65.133 67.73 64.6431C66.6522 64.1392 65.7563 63.4463 65.0425 62.5645C64.3426 61.6826 63.7687 60.5628 63.3208 59.2051C62.8729 57.8473 62.5579 56.3706 62.376 54.7749C62.194 53.1652 62.103 51.3385 62.103 49.2949C62.103 47.2513 62.194 45.4386 62.376 43.8569C62.5719 42.2612 62.9009 40.7845 63.3628 39.4268C63.8387 38.055 64.4476 36.9282 65.1895 36.0464C65.9313 35.1646 66.8761 34.4787 68.0239 33.9888C69.1717 33.4849 70.5085 33.2329 72.0342 33.2329C75.0716 33.2329 77.3602 34.1357 78.8999 35.9414C80.4536 37.7471 81.3215 40.7705 81.5034 45.0117H74.1968C74.0848 43.1361 73.8888 41.8203 73.6089 41.0645C73.3289 40.3086 72.818 39.9307 72.0762 39.9307C71.2083 39.9307 70.6274 40.6445 70.3335 42.0723C70.0396 43.486 69.8926 45.8936 69.8926 49.2949C69.8926 52.8083 70.0465 55.2508 70.3545 56.6226C70.6764 57.9943 71.2503 58.6802 72.0762 58.6802C72.846 58.6802 73.3639 58.2743 73.6299 57.4624C73.9098 56.6506 74.0988 55.2928 74.1968 53.3892H81.5034C81.4054 57.6304 80.5376 60.6888 78.8999 62.5645C77.2762 64.4401 74.8197 65.3779 71.5303 65.3779ZM83.3511 65V33.6528H90.9727V57.9873H96.5576V65H83.3511ZM106.489 65.3779C103.479 65.3779 101.205 64.5381 99.665 62.8584C98.1393 61.1647 97.3765 58.8411 97.3765 55.8877V33.6528H105.04V56.0137C105.04 56.8815 105.166 57.4904 105.418 57.8403C105.684 58.1763 106.076 58.3442 106.594 58.3442C107.168 58.3442 107.567 58.1483 107.791 57.7563C108.014 57.3504 108.126 56.7695 108.126 56.0137V33.6528H115.706V55.8877C115.706 59.0231 114.88 61.3887 113.229 62.9844C111.577 64.5801 109.33 65.3779 106.489 65.3779ZM118.079 65V33.6528H125.049C127.135 33.6528 128.92 33.9328 130.403 34.4927C131.901 35.0386 133.168 35.9274 134.204 37.1592C135.253 38.377 136.023 39.9937 136.513 42.0093C137.017 44.0249 137.269 46.4744 137.269 49.3579C137.269 51.3315 137.164 53.0672 136.954 54.5649C136.758 56.0487 136.387 57.4694 135.841 58.8271C135.309 60.1849 134.596 61.3047 133.7 62.1865C132.804 63.0544 131.628 63.7402 130.172 64.2441C128.731 64.748 127.023 65 125.049 65H118.079ZM125.784 58.2393H126.435C127.093 58.2393 127.625 58.0643 128.031 57.7144C128.451 57.3504 128.766 56.7625 128.976 55.9507C129.2 55.1248 129.347 54.201 129.417 53.1792C129.486 52.1574 129.521 50.8206 129.521 49.1689C129.521 45.8376 129.298 43.549 128.85 42.3032C128.416 41.0435 127.611 40.4136 126.435 40.4136H125.784V58.2393ZM139.075 65V33.6528H153.352V40.4136H146.696V45.8726H152.764V52.1504H146.696V58.2393H153.352V65H139.075ZM163.766 65.4199C160.673 65.4199 158.398 64.5171 156.942 62.7114C155.501 60.8918 154.78 58.3442 154.78 55.0688H161.436C161.436 56.7485 161.604 57.9313 161.939 58.6172C162.275 59.2891 162.793 59.625 163.493 59.625C164.081 59.625 164.501 59.408 164.753 58.9741C165.005 58.5262 165.131 57.8683 165.131 57.0005C165.131 55.8527 164.844 54.9429 164.27 54.271C163.696 53.5851 162.611 52.7593 161.016 51.7935C160.148 51.2756 159.399 50.7576 158.769 50.2397C158.139 49.7218 157.509 49.071 156.879 48.2871C156.25 47.5033 155.767 46.5794 155.431 45.5156C155.109 44.4518 154.948 43.262 154.948 41.9463C154.948 39.0628 155.732 36.9002 157.299 35.4585C158.881 34.0028 161.009 33.2749 163.682 33.2749C166.566 33.2749 168.763 34.0448 170.275 35.5845C171.801 37.1242 172.563 39.6017 172.563 43.0171H165.782C165.796 41.5474 165.67 40.5046 165.404 39.8887C165.152 39.2588 164.704 38.9438 164.06 38.9438C163.024 38.9438 162.506 39.7767 162.506 41.4424C162.506 42.5482 162.751 43.402 163.241 44.0039C163.731 44.5918 164.704 45.3267 166.16 46.2085C166.958 46.6844 167.657 47.1463 168.259 47.5942C168.861 48.0422 169.463 48.5811 170.065 49.2109C170.667 49.8268 171.157 50.4707 171.535 51.1426C171.927 51.8005 172.242 52.5773 172.479 53.4731C172.717 54.355 172.836 55.2998 172.836 56.3076C172.836 59.3451 172.046 61.6266 170.464 63.1523C168.896 64.6641 166.664 65.4199 163.766 65.4199Z" fill="black"/>
<circle cx="200.712" cy="49.7119" r="18.7119" stroke="black" stroke-width="2"/>
<path d="M197.031 53.8594L197.219 52.9375C197.375 52.1979 197.646 51.4792 198.031 50.7812C198.417 50.0729 198.839 49.4479 199.297 48.9062C199.766 48.3542 200.224 47.8281 200.672 47.3281C201.12 46.8281 201.516 46.3229 201.859 45.8125C202.214 45.2917 202.438 44.7969 202.531 44.3281C202.823 43.0052 202.516 42.3438 201.609 42.3438C200.714 42.3438 200.125 43.0781 199.844 44.5469H194.828C195.182 42.1406 196 40.349 197.281 39.1719C198.562 37.9844 200.177 37.3906 202.125 37.3906C204.406 37.3906 206.099 37.9531 207.203 39.0781C208.307 40.1927 208.641 41.8021 208.203 43.9062C208.026 44.75 207.719 45.5677 207.281 46.3594C206.854 47.1406 206.38 47.8385 205.859 48.4531C205.339 49.0573 204.823 49.6406 204.312 50.2031C203.802 50.7656 203.333 51.3542 202.906 51.9688C202.479 52.5729 202.188 53.1615 202.031 53.7344L201.984 53.8594H197.031ZM195.344 61L196.422 55.75H201.766L200.719 61H195.344Z" fill="black"/>
<path d="M364.619 73V41.6528H371.589C373.675 41.6528 375.46 41.9328 376.943 42.4927C378.441 43.0386 379.708 43.9274 380.744 45.1592C381.793 46.377 382.563 47.9937 383.053 50.0093C383.557 52.0249 383.809 54.4744 383.809 57.3579C383.809 59.3315 383.704 61.0672 383.494 62.5649C383.298 64.0487 382.927 65.4694 382.381 66.8271C381.849 68.1849 381.136 69.3047 380.24 70.1865C379.344 71.0544 378.168 71.7402 376.712 72.2441C375.271 72.748 373.563 73 371.589 73H364.619ZM372.324 66.2393H372.975C373.633 66.2393 374.165 66.0643 374.571 65.7144C374.991 65.3504 375.306 64.7625 375.516 63.9507C375.74 63.1248 375.887 62.201 375.957 61.1792C376.027 60.1574 376.062 58.8206 376.062 57.1689C376.062 53.8376 375.838 51.549 375.39 50.3032C374.956 49.0435 374.151 48.4136 372.975 48.4136H372.324V66.2393ZM385.615 73V41.6528H399.892V48.4136H393.236V53.8726H399.304V60.1504H393.236V66.2393H399.892V73H385.615ZM401.866 73V41.6528H409.487V65.9873H415.072V73H401.866ZM416.773 73V41.6528H424.814V73H416.773ZM430.567 73L425.99 41.6528H433.171L434.893 59.3735L435.459 65.8613H435.753L436.236 59.4155L438.042 41.6528H445.223L440.625 73H430.567ZM446.419 73V41.6528H460.697V48.4136H454.041V53.8726H460.109V60.1504H454.041V66.2393H460.697V73H446.419ZM462.67 73V41.6528H471.321C472.875 41.6528 474.232 41.8068 475.394 42.1147C476.556 42.4087 477.585 42.8986 478.48 43.5845C479.39 44.2563 480.076 45.1942 480.538 46.3979C481.014 47.6017 481.252 49.0575 481.252 50.7651C481.252 52.7668 480.93 54.3975 480.286 55.6572C479.642 56.917 478.76 57.7498 477.641 58.1558V58.4707C479.74 58.8346 480.79 60.9412 480.79 64.7905V69.8086C480.79 70.8864 480.888 71.9502 481.084 73H473.294C473.07 72.2301 472.958 71.3273 472.958 70.2915V65.6514C472.958 65.1615 472.944 64.7695 472.917 64.4756C472.903 64.1676 472.847 63.8247 472.749 63.4468C472.665 63.0688 472.511 62.7889 472.287 62.6069C472.077 62.425 471.797 62.334 471.447 62.334H470.376V73H462.67ZM470.376 56.3081H470.943C471.937 56.3081 472.609 55.9932 472.958 55.3633C473.322 54.7334 473.504 53.7326 473.504 52.3608C473.504 50.9191 473.301 49.9043 472.896 49.3164C472.504 48.7145 471.839 48.4136 470.901 48.4136H470.376V56.3081ZM486.648 73V61.2632L480.412 41.6528H488.853L490.532 53.4316H490.784L492.632 41.6528H501.009L494.773 61.2632V73H486.648ZM523.829 73.43C523.714 73.43 523.6 73.387 523.485 73.301C523.399 73.215 523.356 73.0287 523.356 72.742L523.141 59.928C523.141 59.6127 523.055 59.4407 522.883 59.412C522.711 59.3547 522.553 59.4693 522.41 59.756L515.788 72.742C515.645 73.0287 515.516 73.215 515.401 73.301C515.286 73.387 515.172 73.43 515.057 73.43C514.942 73.43 514.828 73.387 514.713 73.301C514.598 73.215 514.541 73.0287 514.541 72.742L514.068 45.48C514.039 44.6773 513.939 44.1183 513.767 43.803C513.595 43.4877 513.237 43.2727 512.692 43.158L512.133 43.029C511.789 42.943 511.617 42.771 511.617 42.513C511.617 42.341 511.689 42.2263 511.832 42.169C511.975 42.083 512.147 42.04 512.348 42.04H519.228C519.601 42.04 519.787 42.1833 519.787 42.47C519.787 42.728 519.529 42.9143 519.013 43.029L518.497 43.115C518.01 43.201 517.623 43.373 517.336 43.631C517.078 43.8603 516.949 44.2903 516.949 44.921L517.207 65.518C517.207 65.776 517.293 65.9193 517.465 65.948C517.637 65.9767 517.78 65.862 517.895 65.604L521.421 58.853C521.994 57.735 522.41 56.6743 522.668 55.671C522.926 54.6677 523.041 53.521 523.012 52.231L522.883 45.48C522.854 44.6773 522.783 44.104 522.668 43.76C522.582 43.416 522.381 43.2153 522.066 43.158L521.507 43.029C521.134 42.943 520.948 42.7853 520.948 42.556C520.948 42.212 521.206 42.04 521.722 42.04H527.484C527.857 42.04 528.043 42.1833 528.043 42.47C528.043 42.7567 527.785 42.943 527.269 43.029L526.753 43.115C526.38 43.1723 526.122 43.33 525.979 43.588C525.864 43.846 525.807 44.2903 525.807 44.921L525.893 50.726C525.893 51.0127 525.979 51.1847 526.151 51.242C526.323 51.2707 526.466 51.156 526.581 50.898L529.247 45.824C529.82 44.7347 530.107 44.018 530.107 43.674C530.107 43.33 529.978 43.1437 529.72 43.115L529.29 43.029C528.917 42.943 528.731 42.771 528.731 42.513C528.731 42.1977 528.975 42.04 529.462 42.04H533.504C533.963 42.04 534.192 42.1833 534.192 42.47C534.192 42.7853 533.905 42.9717 533.332 43.029L532.859 43.072C532.458 43.1007 532.085 43.33 531.741 43.76C531.397 44.19 530.981 44.8923 530.494 45.867L527.527 51.586C526.954 52.7327 526.538 53.8077 526.28 54.811C526.022 55.7857 525.907 56.918 525.936 58.208L526.022 65.346C526.022 65.604 526.108 65.7473 526.28 65.776C526.452 65.776 526.595 65.6613 526.71 65.432L536.127 45.824C536.528 44.9927 536.715 44.362 536.686 43.932C536.686 43.502 536.442 43.2297 535.955 43.115L535.525 43.029C535.152 42.943 534.966 42.771 534.966 42.513C534.966 42.1977 535.21 42.04 535.697 42.04H540.556C540.957 42.04 541.158 42.1977 541.158 42.513C541.158 42.8283 540.871 43.0003 540.298 43.029L539.825 43.072C539.424 43.1007 539.065 43.287 538.75 43.631C538.463 43.9463 538.033 44.6917 537.46 45.867L524.56 72.742C524.445 73.0287 524.316 73.215 524.173 73.301C524.058 73.387 523.944 73.43 523.829 73.43ZM544.698 46.985C544.153 46.985 543.694 46.7987 543.322 46.426C542.978 46.0247 542.806 45.5517 542.806 45.007C542.806 44.233 543.035 43.6167 543.494 43.158C543.981 42.6993 544.526 42.47 545.128 42.47C545.701 42.47 546.174 42.6563 546.547 43.029C546.948 43.373 547.149 43.8317 547.149 44.405C547.149 45.2077 546.905 45.8383 546.418 46.297C545.93 46.7557 545.357 46.985 544.698 46.985ZM541.172 73.43C540.226 73.43 539.552 73.086 539.151 72.398C538.749 71.6813 538.735 70.5203 539.108 68.915L542.29 55.284C542.433 54.6533 542.447 54.166 542.333 53.822C542.247 53.4493 541.989 53.263 541.559 53.263C541.043 53.263 540.469 53.65 539.839 54.424C539.237 55.1693 538.549 56.6027 537.775 58.724C537.66 59.0967 537.459 59.283 537.173 59.283C536.743 59.283 536.628 59.025 536.829 58.509C537.459 56.531 538.119 54.983 538.807 53.865C539.523 52.747 540.24 51.9587 540.957 51.5C541.673 51.0413 542.333 50.812 542.935 50.812C543.938 50.812 544.64 51.1703 545.042 51.887C545.443 52.575 545.457 53.7217 545.085 55.327L541.903 68.958C541.759 69.5887 541.731 70.0903 541.817 70.463C541.931 70.807 542.204 70.979 542.634 70.979C543.15 70.979 543.709 70.6063 544.311 69.861C544.941 69.087 545.644 67.6393 546.418 65.518C546.532 65.1453 546.733 64.959 547.02 64.959C547.45 64.959 547.564 65.217 547.364 65.733C546.762 67.6823 546.088 69.2303 545.343 70.377C544.626 71.495 543.909 72.2833 543.193 72.742C542.476 73.2007 541.802 73.43 541.172 73.43ZM552.699 73.387C551.725 73.387 550.965 73 550.42 72.226C549.876 71.452 549.79 70.205 550.162 68.485L553.731 52.919C553.817 52.489 553.645 52.274 553.215 52.274H551.581C551.18 52.274 550.979 52.0877 550.979 51.715C550.979 51.5143 551.051 51.3567 551.194 51.242C551.338 51.1273 551.51 51.07 551.71 51.07H553.258C553.918 51.07 554.305 50.769 554.419 50.167L555.451 45.566C555.537 45.2507 555.738 45.093 556.053 45.093H557.816C558.218 45.093 558.375 45.2793 558.289 45.652L557.214 50.425C557.128 50.855 557.3 51.07 557.73 51.07H560.181C560.669 51.07 560.912 51.2563 560.912 51.629C560.912 52.059 560.611 52.274 560.009 52.274H557.687C557.057 52.274 556.67 52.575 556.526 53.177L552.914 68.915C552.771 69.5457 552.785 70.0473 552.957 70.42C553.158 70.764 553.488 70.936 553.946 70.936C554.606 70.936 555.208 70.5633 555.752 69.818C556.326 69.0727 556.928 67.6537 557.558 65.561C557.673 65.1883 557.859 65.002 558.117 65.002C558.318 65.002 558.447 65.088 558.504 65.26C558.562 65.432 558.519 65.7473 558.375 66.206C557.831 68.1553 557.229 69.646 556.569 70.678C555.939 71.71 555.294 72.4267 554.634 72.828C553.975 73.2007 553.33 73.387 552.699 73.387ZM573.875 73.387C572.843 73.387 572.069 72.957 571.553 72.097C571.037 71.237 571.009 69.904 571.467 68.098L574.778 55.628C575.094 54.51 575.137 53.736 574.907 53.306C574.707 52.876 574.406 52.661 574.004 52.661C573.374 52.661 572.657 53.0623 571.854 53.865C571.08 54.639 570.263 55.714 569.403 57.09C568.572 58.4373 567.755 59.971 566.952 61.691C566.178 63.3823 565.462 65.174 564.802 67.066C564.143 68.9293 563.613 70.7497 563.211 72.527C563.125 72.8423 562.925 73 562.609 73H560.803C560.402 73 560.244 72.8137 560.33 72.441L566.608 45.48C566.752 44.964 566.752 44.6057 566.608 44.405C566.494 44.2043 566.236 44.0897 565.834 44.061L564.544 43.932C564.114 43.9033 563.928 43.717 563.985 43.373C564.043 43.115 564.243 42.9573 564.587 42.9C565.619 42.728 566.537 42.5273 567.339 42.298C568.142 42.04 568.787 41.7103 569.274 41.309C569.504 41.137 569.719 41.051 569.919 41.051C570.263 41.051 570.392 41.266 570.306 41.696L566.092 59.971C566.064 60.1717 566.107 60.2863 566.221 60.315C566.336 60.3437 566.436 60.272 566.522 60.1C567.669 57.7493 568.758 55.9003 569.79 54.553C570.822 53.2057 571.783 52.2453 572.671 51.672C573.589 51.0987 574.42 50.812 575.165 50.812C576.226 50.812 577 51.242 577.487 52.102C577.975 52.962 577.975 54.2807 577.487 56.058L574.219 68.528C574.019 69.3307 574.004 69.9327 574.176 70.334C574.348 70.7353 574.664 70.936 575.122 70.936C575.696 70.936 576.255 70.5633 576.799 69.818C577.344 69.044 577.932 67.5963 578.562 65.475C578.648 65.1597 578.835 65.002 579.121 65.002C579.351 65.002 579.48 65.088 579.508 65.26C579.566 65.432 579.566 65.6327 579.508 65.862C578.964 67.8113 578.376 69.345 577.745 70.463C577.115 71.5523 576.47 72.312 575.81 72.742C575.18 73.172 574.535 73.387 573.875 73.387ZM589.251 46.985C588.707 46.985 588.248 46.7987 587.875 46.426C587.531 46.0247 587.359 45.5517 587.359 45.007C587.359 44.233 587.589 43.6167 588.047 43.158C588.535 42.6993 589.079 42.47 589.681 42.47C590.255 42.47 590.728 42.6563 591.1 43.029C591.502 43.373 591.702 43.8317 591.702 44.405C591.702 45.2077 591.459 45.8383 590.971 46.297C590.484 46.7557 589.911 46.985 589.251 46.985ZM585.725 73.43C584.779 73.43 584.106 73.086 583.704 72.398C583.303 71.6813 583.289 70.5203 583.661 68.915L586.843 55.284C586.987 54.6533 587.001 54.166 586.886 53.822C586.8 53.4493 586.542 53.263 586.112 53.263C585.596 53.263 585.023 53.65 584.392 54.424C583.79 55.1693 583.102 56.6027 582.328 58.724C582.214 59.0967 582.013 59.283 581.726 59.283C581.296 59.283 581.182 59.025 581.382 58.509C582.013 56.531 582.672 54.983 583.36 53.865C584.077 52.747 584.794 51.9587 585.51 51.5C586.227 51.0413 586.886 50.812 587.488 50.812C588.492 50.812 589.194 51.1703 589.595 51.887C589.997 52.575 590.011 53.7217 589.638 55.327L586.456 68.958C586.313 69.5887 586.284 70.0903 586.37 70.463C586.485 70.807 586.757 70.979 587.187 70.979C587.703 70.979 588.262 70.6063 588.864 69.861C589.495 69.087 590.197 67.6393 590.971 65.518C591.086 65.1453 591.287 64.959 591.573 64.959C592.003 64.959 592.118 65.217 591.917 65.733C591.315 67.6823 590.642 69.2303 589.896 70.377C589.18 71.495 588.463 72.2833 587.746 72.742C587.03 73.2007 586.356 73.43 585.725 73.43ZM595.146 72.441L599.231 55.284C599.375 54.6533 599.389 54.166 599.274 53.822C599.188 53.4493 598.93 53.263 598.5 53.263C597.984 53.263 597.411 53.65 596.78 54.424C596.178 55.1693 595.49 56.6027 594.716 58.724C594.602 59.0967 594.401 59.283 594.114 59.283C593.684 59.283 593.57 59.025 593.77 58.509C594.401 56.531 595.06 54.983 595.748 53.865C596.465 52.747 597.182 51.9587 597.898 51.5C598.615 51.0413 599.274 50.812 599.876 50.812C600.822 50.812 601.496 51.1703 601.897 51.887C602.299 52.575 602.313 53.7217 601.94 55.327L600.865 59.971C600.837 60.1717 600.88 60.2863 600.994 60.315C601.109 60.3437 601.209 60.272 601.295 60.1C602.413 57.778 603.488 55.9433 604.52 54.596C605.552 53.22 606.527 52.2453 607.444 51.672C608.362 51.0987 609.193 50.812 609.938 50.812C610.999 50.812 611.773 51.242 612.26 52.102C612.748 52.962 612.748 54.2807 612.26 56.058L608.992 68.528C608.792 69.3307 608.777 69.9327 608.949 70.334C609.121 70.7353 609.437 70.936 609.895 70.936C610.469 70.936 611.028 70.5633 611.572 69.818C612.146 69.044 612.733 67.5963 613.335 65.475C613.421 65.1597 613.608 65.002 613.894 65.002C614.124 65.002 614.253 65.088 614.281 65.26C614.339 65.432 614.339 65.6327 614.281 65.862C613.737 67.8113 613.149 69.345 612.518 70.463C611.888 71.5523 611.243 72.312 610.583 72.742C609.953 73.172 609.308 73.387 608.648 73.387C607.616 73.387 606.842 72.957 606.326 72.097C605.81 71.237 605.782 69.904 606.24 68.098L609.551 55.628C609.867 54.51 609.91 53.736 609.68 53.306C609.48 52.876 609.179 52.661 608.777 52.661C608.147 52.661 607.43 53.0623 606.627 53.865C605.825 54.639 605.008 55.714 604.176 57.09C603.345 58.4373 602.528 59.971 601.725 61.691C600.923 63.411 600.192 65.2027 599.532 67.066C598.902 68.9293 598.386 70.7497 597.984 72.527C597.898 72.8423 597.698 73 597.382 73H595.619C595.218 73 595.06 72.8137 595.146 72.441ZM627.027 73.387C626.281 73.387 625.45 73.2723 624.533 73.043C623.615 72.8137 622.841 72.4553 622.211 71.968C621.551 71.452 621.222 70.807 621.222 70.033C621.222 69.5743 621.365 69.1873 621.652 68.872C621.938 68.528 622.311 68.356 622.77 68.356C623.228 68.356 623.558 68.485 623.759 68.743C623.959 69.001 624.117 69.3307 624.232 69.732C624.346 70.1047 624.475 70.4917 624.619 70.893C624.791 71.2943 625.077 71.624 625.479 71.882C625.88 72.14 626.468 72.269 627.242 72.269C628.446 72.269 629.506 71.9823 630.424 71.409C631.341 70.8357 632.115 70.076 632.746 69.13C633.405 68.1553 633.892 67.0803 634.208 65.905C634.552 64.7297 634.724 63.54 634.724 62.336C634.724 60.1287 634.165 58.3657 633.047 57.047C631.957 55.7283 630.237 54.7823 627.887 54.209C627.485 54.0943 627.371 53.8507 627.543 53.478L632.23 42.513C632.373 42.1977 632.631 42.04 633.004 42.04H639.669C640.156 42.04 640.514 41.954 640.744 41.782C641.002 41.5813 641.217 41.395 641.389 41.223C641.589 41.051 641.79 40.965 641.991 40.965C642.478 40.965 642.564 41.266 642.249 41.868L641.045 44.19C640.901 44.4767 640.643 44.62 640.271 44.62H633.348C632.975 44.62 632.717 44.7777 632.574 45.093L629.908 51.414C629.764 51.758 629.879 51.9873 630.252 52.102C632.832 52.79 634.709 54.037 635.885 55.843C637.06 57.6203 637.648 59.6557 637.648 61.949C637.648 63.3537 637.39 64.7297 636.874 66.077C636.386 67.4243 635.67 68.657 634.724 69.775C633.806 70.8643 632.688 71.7387 631.37 72.398C630.08 73.0573 628.632 73.387 627.027 73.387ZM647.182 73.387C645.089 73.387 643.584 72.441 642.667 70.549C641.749 68.6283 641.291 66.0913 641.291 62.938C641.291 61.304 641.477 59.5267 641.85 57.606C642.251 55.6853 642.81 53.7933 643.527 51.93C644.243 50.038 645.089 48.318 646.064 46.77C647.067 45.1933 648.171 43.9463 649.375 43.029C650.579 42.083 651.854 41.61 653.202 41.61C655.294 41.61 656.799 42.5703 657.717 44.491C658.634 46.383 659.093 48.9057 659.093 52.059C659.093 53.6643 658.892 55.4273 658.491 57.348C658.118 59.2687 657.573 61.175 656.857 63.067C656.14 64.9303 655.28 66.6503 654.277 68.227C653.302 69.775 652.213 71.022 651.009 71.968C649.805 72.914 648.529 73.387 647.182 73.387ZM647.397 72.269C648.343 72.269 649.217 71.8533 650.02 71.022C650.851 70.1907 651.611 69.0727 652.299 67.668C652.987 66.2633 653.589 64.7153 654.105 63.024C654.649 61.3327 655.108 59.6127 655.481 57.864C655.853 56.1153 656.126 54.4813 656.298 52.962C656.498 51.414 656.599 50.1097 656.599 49.049C656.599 46.8703 656.283 45.2793 655.653 44.276C655.051 43.244 654.162 42.728 652.987 42.728C652.041 42.728 651.152 43.1437 650.321 43.975C649.518 44.8063 648.773 45.9243 648.085 47.329C647.397 48.705 646.78 50.253 646.236 51.973C645.72 53.6643 645.275 55.3843 644.903 57.133C644.53 58.853 644.243 60.487 644.043 62.035C643.871 63.583 643.785 64.8873 643.785 65.948C643.785 67.0947 643.885 68.141 644.086 69.087C644.315 70.033 644.688 70.807 645.204 71.409C645.72 71.9823 646.451 72.269 647.397 72.269ZM665.408 73C665.006 73 664.806 72.8567 664.806 72.57C664.806 72.2547 665.092 72.054 665.666 71.968L666.526 71.839C667.156 71.753 667.586 71.6097 667.816 71.409C668.074 71.1797 668.26 70.764 668.375 70.162L674.223 44.878C674.366 44.276 674.366 43.8747 674.223 43.674C674.079 43.4733 673.721 43.3157 673.148 43.201L672.288 43.029C671.915 42.943 671.729 42.7853 671.729 42.556C671.729 42.212 671.987 42.04 672.503 42.04H680.2C680.63 42.04 680.845 42.1977 680.845 42.513C680.845 42.8283 680.615 43.0147 680.157 43.072L679.039 43.201C678.408 43.2583 677.978 43.416 677.749 43.674C677.519 43.9033 677.333 44.319 677.19 44.921L674.481 56.617C674.423 56.8463 674.452 57.004 674.567 57.09C674.71 57.176 674.868 57.1187 675.04 56.918L684.801 45.695C686.033 44.233 686.134 43.4017 685.102 43.201L684.285 43.029C683.883 42.943 683.683 42.771 683.683 42.513C683.683 42.1977 683.912 42.04 684.371 42.04H691.724C692.125 42.04 692.326 42.1833 692.326 42.47C692.326 42.814 692.096 43.0003 691.638 43.029L690.778 43.115C689.889 43.201 689.115 43.459 688.456 43.889C687.796 44.319 686.979 45.093 686.005 46.211L679.254 53.908C678.91 54.3667 678.809 54.8253 678.953 55.284L683.554 70.463C683.697 70.9217 683.855 71.2513 684.027 71.452C684.227 71.6527 684.485 71.7817 684.801 71.839L685.704 72.011C686.048 72.097 686.22 72.2547 686.22 72.484C686.22 72.828 685.976 73 685.489 73H678.308C677.906 73 677.706 72.8567 677.706 72.57C677.706 72.2547 677.935 72.0683 678.394 72.011L679.168 71.925C680.286 71.7817 680.673 71.0793 680.329 69.818L676.846 57.821C676.788 57.5917 676.674 57.4627 676.502 57.434C676.33 57.4053 676.172 57.477 676.029 57.649L674.395 59.498C674.108 59.8133 673.879 60.143 673.707 60.487C673.535 60.831 673.391 61.218 673.277 61.648L671.342 70.119C671.227 70.721 671.227 71.1367 671.342 71.366C671.485 71.5953 671.843 71.753 672.417 71.839L673.449 72.011C673.764 72.0397 673.922 72.1973 673.922 72.484C673.922 72.828 673.664 73 673.148 73H665.408ZM711.839 73.387C710.807 73.387 710.033 72.957 709.517 72.097C709.001 71.237 708.972 69.904 709.431 68.098L712.742 55.628C713.057 54.51 713.1 53.736 712.871 53.306C712.67 52.876 712.369 52.661 711.968 52.661C711.394 52.661 710.735 53.0623 709.99 53.865C709.244 54.639 708.456 55.6997 707.625 57.047C706.822 58.3943 706.034 59.928 705.26 61.648C704.486 63.368 703.769 65.1597 703.11 67.023C702.45 68.8863 701.906 70.721 701.476 72.527C701.39 72.8423 701.189 73 700.874 73H699.197C698.795 73 698.638 72.8137 698.724 72.441L702.68 55.628C702.938 54.51 702.966 53.736 702.766 53.306C702.594 52.876 702.307 52.661 701.906 52.661C701.361 52.661 700.716 53.0623 699.971 53.865C699.225 54.639 698.451 55.6997 697.649 57.047C696.846 58.3943 696.058 59.928 695.284 61.648C694.51 63.368 693.793 65.1597 693.134 67.023C692.474 68.8863 691.944 70.721 691.543 72.527C691.457 72.8423 691.256 73 690.941 73H689.178C688.776 73 688.619 72.8137 688.705 72.441L692.79 55.284C692.933 54.6533 692.947 54.166 692.833 53.822C692.747 53.4493 692.489 53.263 692.059 53.263C691.543 53.263 690.969 53.65 690.339 54.424C689.737 55.1693 689.049 56.6027 688.275 58.724C688.16 59.0967 687.959 59.283 687.673 59.283C687.243 59.283 687.128 59.025 687.329 58.509C687.959 56.531 688.619 54.983 689.307 53.865C690.023 52.747 690.74 51.9587 691.457 51.5C692.173 51.0413 692.833 50.812 693.435 50.812C694.381 50.812 695.054 51.1703 695.456 51.887C695.857 52.575 695.871 53.7217 695.499 55.327L694.424 59.971C694.395 60.1717 694.438 60.2863 694.553 60.315C694.667 60.3437 694.768 60.272 694.854 60.1C696.516 56.66 698.021 54.252 699.369 52.876C700.716 51.5 701.949 50.812 703.067 50.812C704.127 50.812 704.873 51.242 705.303 52.102C705.761 52.962 705.79 54.2807 705.389 56.058L704.486 59.971C704.457 60.1717 704.5 60.2863 704.615 60.315C704.729 60.3437 704.83 60.272 704.916 60.1C706.005 57.778 707.023 55.9433 707.969 54.596C708.943 53.22 709.861 52.2453 710.721 51.672C711.581 51.0987 712.383 50.812 713.129 50.812C714.189 50.812 714.963 51.242 715.451 52.102C715.938 52.962 715.938 54.2807 715.451 56.058L712.183 68.528C711.982 69.3307 711.968 69.9327 712.14 70.334C712.312 70.7353 712.627 70.936 713.086 70.936C713.659 70.936 714.218 70.5633 714.763 69.818C715.336 69.044 715.924 67.5963 716.526 65.475C716.612 65.1597 716.798 65.002 717.085 65.002C717.314 65.002 717.443 65.088 717.472 65.26C717.529 65.432 717.529 65.6327 717.472 65.862C716.927 67.8113 716.339 69.345 715.709 70.463C715.078 71.5523 714.433 72.312 713.774 72.742C713.143 73.172 712.498 73.387 711.839 73.387ZM735.361 73.387C733.125 73.387 731.348 72.4697 730.029 70.635C728.739 68.8003 728.094 66.1057 728.094 62.551C728.094 60.4297 728.338 58.3513 728.825 56.316C729.313 54.2807 729.986 52.3887 730.846 50.64C731.706 48.8627 732.695 47.3003 733.813 45.953C734.96 44.577 736.178 43.5163 737.468 42.771C738.787 41.997 740.134 41.61 741.51 41.61C743.746 41.61 745.509 42.5273 746.799 44.362C748.118 46.168 748.777 48.8627 748.777 52.446C748.777 54.5673 748.534 56.6457 748.046 58.681C747.559 60.7163 746.885 62.6227 746.025 64.4C745.165 66.1487 744.162 67.711 743.015 69.087C741.897 70.4343 740.679 71.495 739.36 72.269C738.07 73.0143 736.737 73.387 735.361 73.387ZM735.275 72.269C736.336 72.269 737.368 71.8533 738.371 71.022C739.403 70.162 740.364 69.001 741.252 67.539C742.17 66.0483 742.972 64.3427 743.66 62.422C744.348 60.4727 744.879 58.4087 745.251 56.23C745.653 54.0513 745.853 51.844 745.853 49.608C745.853 45.0213 744.434 42.728 741.596 42.728C740.536 42.728 739.489 43.158 738.457 44.018C737.454 44.8493 736.494 46.0103 735.576 47.501C734.688 48.963 733.899 50.6687 733.211 52.618C732.523 54.5387 731.979 56.5883 731.577 58.767C731.205 60.9457 731.018 63.153 731.018 65.389C731.018 69.9757 732.437 72.269 735.275 72.269ZM750.37 73C749.997 73 749.854 72.8137 749.94 72.441L754.283 53.865C754.541 52.8043 754.197 52.274 753.251 52.274H752.348C751.889 52.274 751.66 52.0733 751.66 51.672C751.66 51.2707 751.918 51.07 752.434 51.07C753.323 51.07 753.982 50.9553 754.412 50.726C754.871 50.4967 755.172 50.038 755.315 49.35C755.688 47.716 756.232 46.2683 756.949 45.007C757.694 43.717 758.583 42.6993 759.615 41.954C760.647 41.2087 761.779 40.836 763.012 40.836C764.015 40.836 764.818 41.0797 765.42 41.567C766.051 42.0257 766.366 42.6707 766.366 43.502C766.366 44.1327 766.194 44.6487 765.85 45.05C765.535 45.4227 765.133 45.609 764.646 45.609C764.044 45.609 763.643 45.437 763.442 45.093C763.27 44.749 763.155 44.3477 763.098 43.889C763.069 43.4303 762.983 43.029 762.84 42.685C762.697 42.341 762.367 42.169 761.851 42.169C761.192 42.169 760.604 42.4987 760.088 43.158C759.601 43.7887 759.156 44.9927 758.755 46.77L757.895 50.511C757.809 50.8837 757.967 51.07 758.368 51.07H761.808C762.353 51.07 762.568 51.2707 762.453 51.672C762.367 52.0733 762.109 52.274 761.679 52.274H757.938C757.651 52.274 757.465 52.4173 757.379 52.704L752.778 72.527C752.692 72.8423 752.491 73 752.176 73H750.37ZM767.113 73C766.711 73 766.511 72.8567 766.511 72.57C766.511 72.2547 766.797 72.054 767.371 71.968L768.231 71.839C768.861 71.753 769.291 71.6097 769.521 71.409C769.779 71.1797 769.965 70.764 770.08 70.162L775.928 44.878C776.071 44.276 776.071 43.8747 775.928 43.674C775.784 43.4733 775.426 43.3157 774.853 43.201L773.993 43.029C773.62 42.943 773.434 42.7853 773.434 42.556C773.434 42.212 773.692 42.04 774.208 42.04H781.948C782.349 42.04 782.55 42.1977 782.55 42.513C782.55 42.8283 782.292 43.0147 781.776 43.072L780.744 43.201C780.113 43.287 779.683 43.4447 779.454 43.674C779.224 43.9033 779.038 44.319 778.895 44.921L776.401 55.714C776.315 56.1153 776.472 56.316 776.874 56.316H785.388C785.789 56.316 786.033 56.1153 786.119 55.714L788.613 44.921C788.756 44.319 788.756 43.9033 788.613 43.674C788.469 43.4447 788.111 43.287 787.538 43.201L786.592 43.072C786.19 43.0433 785.99 42.8713 785.99 42.556C785.99 42.212 786.262 42.04 786.807 42.04H794.547C794.948 42.04 795.149 42.1833 795.149 42.47C795.149 42.7853 794.862 42.986 794.289 43.072L793.429 43.201C792.798 43.287 792.368 43.4447 792.139 43.674C791.909 43.8747 791.723 44.276 791.58 44.878L785.732 70.162C785.617 70.764 785.617 71.1653 785.732 71.366C785.875 71.5667 786.233 71.7243 786.807 71.839L787.667 72.011C788.039 72.097 788.226 72.2547 788.226 72.484C788.226 72.828 787.968 73 787.452 73H779.712C779.31 73 779.11 72.8423 779.11 72.527C779.11 72.2117 779.368 72.0253 779.884 71.968L780.916 71.839C781.546 71.753 781.976 71.5953 782.206 71.366C782.464 71.1367 782.65 70.721 782.765 70.119L785.517 58.208C785.603 57.8067 785.459 57.606 785.087 57.606H776.573C776.143 57.606 775.885 57.8067 775.799 58.208L773.047 70.119C772.932 70.721 772.932 71.1367 773.047 71.366C773.19 71.5953 773.548 71.753 774.122 71.839L775.068 71.968C775.469 71.9967 775.67 72.1687 775.67 72.484C775.67 72.828 775.397 73 774.853 73H767.113ZM794.561 73.387C793.529 73.387 792.727 72.9427 792.153 72.054C791.58 71.1653 791.293 69.861 791.293 68.141C791.293 66.507 791.523 64.873 791.981 63.239C792.44 61.5763 793.071 59.9997 793.873 58.509C794.676 57.0183 795.579 55.6997 796.582 54.553C797.614 53.4063 798.689 52.5033 799.807 51.844C800.954 51.156 802.086 50.812 803.204 50.812C803.749 50.812 804.265 50.9267 804.752 51.156C805.24 51.3567 805.641 51.6863 805.956 52.145C806.128 52.403 806.3 52.532 806.472 52.532C806.644 52.532 806.816 52.403 806.988 52.145C807.304 51.6863 807.562 51.3997 807.762 51.285C807.963 51.1417 808.149 51.07 808.321 51.07C808.694 51.07 808.837 51.2707 808.751 51.672L804.924 68.141C804.494 70.0043 804.781 70.936 805.784 70.936C806.444 70.936 807.031 70.4917 807.547 69.603C808.092 68.7143 808.637 67.3383 809.181 65.475C809.267 65.1597 809.454 65.002 809.74 65.002C809.941 65.002 810.07 65.088 810.127 65.26C810.185 65.432 810.185 65.6327 810.127 65.862C809.583 68.5567 808.852 70.4917 807.934 71.667C807.017 72.8137 805.913 73.387 804.623 73.387C803.505 73.387 802.703 72.914 802.215 71.968C801.757 71.022 801.714 69.732 802.086 68.098L802.645 65.733C802.703 65.5323 802.66 65.4177 802.516 65.389C802.402 65.3603 802.301 65.432 802.215 65.604C800.639 68.4993 799.234 70.5203 798.001 71.667C796.797 72.8137 795.651 73.387 794.561 73.387ZM795.636 71.194C796.324 71.194 797.084 70.7783 797.915 69.947C798.747 69.1157 799.564 68.0407 800.366 66.722C801.198 65.4033 801.957 63.9843 802.645 62.465C803.333 60.9457 803.878 59.4837 804.279 58.079C804.709 56.6743 804.924 55.4847 804.924 54.51C804.924 52.7613 804.308 51.887 803.075 51.887C802.33 51.887 801.542 52.231 800.71 52.919C799.879 53.5783 799.076 54.4813 798.302 55.628C797.557 56.7747 796.869 58.079 796.238 59.541C795.636 60.9743 795.149 62.4793 794.776 64.056C794.404 65.604 794.217 67.1233 794.217 68.614C794.217 69.6173 794.332 70.3053 794.561 70.678C794.819 71.022 795.178 71.194 795.636 71.194ZM836.514 73.387C835.482 73.387 834.708 72.957 834.192 72.097C833.676 71.237 833.647 69.904 834.106 68.098L837.417 55.628C837.732 54.51 837.775 53.736 837.546 53.306C837.345 52.876 837.044 52.661 836.643 52.661C836.069 52.661 835.41 53.0623 834.665 53.865C833.919 54.639 833.131 55.6997 832.3 57.047C831.497 58.3943 830.709 59.928 829.935 61.648C829.161 63.368 828.444 65.1597 827.785 67.023C827.125 68.8863 826.581 70.721 826.151 72.527C826.065 72.8423 825.864 73 825.549 73H823.872C823.47 73 823.313 72.8137 823.399 72.441L827.355 55.628C827.613 54.51 827.641 53.736 827.441 53.306C827.269 52.876 826.982 52.661 826.581 52.661C826.036 52.661 825.391 53.0623 824.646 53.865C823.9 54.639 823.126 55.6997 822.324 57.047C821.521 58.3943 820.733 59.928 819.959 61.648C819.185 63.368 818.468 65.1597 817.809 67.023C817.149 68.8863 816.619 70.721 816.218 72.527C816.132 72.8423 815.931 73 815.616 73H813.853C813.451 73 813.294 72.8137 813.38 72.441L817.465 55.284C817.608 54.6533 817.622 54.166 817.508 53.822C817.422 53.4493 817.164 53.263 816.734 53.263C816.218 53.263 815.644 53.65 815.014 54.424C814.412 55.1693 813.724 56.6027 812.95 58.724C812.835 59.0967 812.634 59.283 812.348 59.283C811.918 59.283 811.803 59.025 812.004 58.509C812.634 56.531 813.294 54.983 813.982 53.865C814.698 52.747 815.415 51.9587 816.132 51.5C816.848 51.0413 817.508 50.812 818.11 50.812C819.056 50.812 819.729 51.1703 820.131 51.887C820.532 52.575 820.546 53.7217 820.174 55.327L819.099 59.971C819.07 60.1717 819.113 60.2863 819.228 60.315C819.342 60.3437 819.443 60.272 819.529 60.1C821.191 56.66 822.696 54.252 824.044 52.876C825.391 51.5 826.624 50.812 827.742 50.812C828.802 50.812 829.548 51.242 829.978 52.102C830.436 52.962 830.465 54.2807 830.064 56.058L829.161 59.971C829.132 60.1717 829.175 60.2863 829.29 60.315C829.404 60.3437 829.505 60.272 829.591 60.1C830.68 57.778 831.698 55.9433 832.644 54.596C833.618 53.22 834.536 52.2453 835.396 51.672C836.256 51.0987 837.058 50.812 837.804 50.812C838.864 50.812 839.638 51.242 840.126 52.102C840.613 52.962 840.613 54.2807 840.126 56.058L836.858 68.528C836.657 69.3307 836.643 69.9327 836.815 70.334C836.987 70.7353 837.302 70.936 837.761 70.936C838.334 70.936 838.893 70.5633 839.438 69.818C840.011 69.044 840.599 67.5963 841.201 65.475C841.287 65.1597 841.473 65.002 841.76 65.002C841.989 65.002 842.118 65.088 842.147 65.26C842.204 65.432 842.204 65.6327 842.147 65.862C841.602 67.8113 841.014 69.345 840.384 70.463C839.753 71.5523 839.108 72.312 838.449 72.742C837.818 73.172 837.173 73.387 836.514 73.387ZM848.989 73.387C848.014 73.387 847.14 73.129 846.366 72.613C845.62 72.0683 845.09 71.2657 844.775 70.205C844.488 69.1157 844.531 67.7683 844.904 66.163L849.72 45.48C849.863 44.964 849.863 44.6057 849.72 44.405C849.605 44.2043 849.347 44.0897 848.946 44.061L847.656 43.932C847.226 43.9033 847.039 43.717 847.097 43.373C847.154 43.115 847.355 42.9573 847.699 42.9C848.731 42.728 849.648 42.5273 850.451 42.298C851.253 42.04 851.898 41.7103 852.386 41.309C852.615 41.137 852.83 41.051 853.031 41.051C853.375 41.051 853.504 41.266 853.418 41.696L849.505 58.595C849.476 58.7957 849.519 58.9103 849.634 58.939C849.748 58.9677 849.849 58.896 849.935 58.724C851.511 55.714 852.916 53.65 854.149 52.532C855.41 51.3853 856.585 50.812 857.675 50.812C858.735 50.812 859.567 51.2563 860.169 52.145C860.799 53.0337 861.115 54.338 861.115 56.058C861.115 57.692 860.871 59.3403 860.384 61.003C859.925 62.637 859.28 64.1993 858.449 65.69C857.646 67.1807 856.714 68.4993 855.654 69.646C854.622 70.7927 853.532 71.71 852.386 72.398C851.239 73.0573 850.107 73.387 848.989 73.387ZM849.118 72.312C849.863 72.312 850.651 71.9823 851.483 71.323C852.314 70.635 853.117 69.732 853.891 68.614C854.693 67.4673 855.41 66.1917 856.041 64.787C856.671 63.3537 857.173 61.8917 857.546 60.401C857.918 58.8817 858.105 57.4197 858.105 56.015C858.105 54.9257 857.99 54.166 857.761 53.736C857.531 53.2773 857.13 53.048 856.557 53.048C855.926 53.048 855.209 53.435 854.407 54.209C853.604 54.983 852.787 56.015 851.956 57.305C851.124 58.5663 850.35 59.9423 849.634 61.433C848.917 62.9237 848.344 64.4 847.914 65.862C847.484 67.2953 847.269 68.571 847.269 69.689C847.269 71.4377 847.885 72.312 849.118 72.312ZM866.604 73.387C865.544 73.387 864.813 72.914 864.411 71.968C864.039 70.9933 864.067 69.7177 864.497 68.141L867.894 55.671C868.124 54.8397 868.181 54.1947 868.066 53.736C867.952 53.2773 867.694 53.048 867.292 53.048C866.633 53.048 865.959 53.5497 865.271 54.553C864.612 55.5563 864.039 56.9467 863.551 58.724C863.465 59.0393 863.279 59.197 862.992 59.197C862.591 59.197 862.462 58.9103 862.605 58.337C863.265 55.929 864.125 54.08 865.185 52.79C866.275 51.4713 867.464 50.812 868.754 50.812C869.786 50.812 870.474 51.285 870.818 52.231C871.162 53.177 871.105 54.467 870.646 56.101L867.206 68.571C866.662 70.549 866.848 71.538 867.765 71.538C868.339 71.538 868.998 71.151 869.743 70.377C870.489 69.603 871.263 68.5423 872.065 67.195C872.897 65.8477 873.714 64.314 874.516 62.594C875.319 60.874 876.05 59.068 876.709 57.176C877.369 55.284 877.913 53.4063 878.343 51.543C878.429 51.2277 878.63 51.07 878.945 51.07H880.665C881.067 51.07 881.224 51.2563 881.138 51.629L877.096 68.915C876.781 70.2623 877.025 70.936 877.827 70.936C879.031 70.936 880.293 69.1157 881.611 65.475C881.726 65.1023 881.927 64.916 882.213 64.916C882.385 64.916 882.5 64.9877 882.557 65.131C882.643 65.2743 882.643 65.4607 882.557 65.69C881.783 68.1267 880.866 70.0187 879.805 71.366C878.745 72.7133 877.627 73.387 876.451 73.387C874.387 73.387 873.699 71.882 874.387 68.872L875.505 64.099C875.563 63.8983 875.52 63.7837 875.376 63.755C875.262 63.7263 875.161 63.798 875.075 63.97C873.413 67.41 871.879 69.8467 870.474 71.28C869.07 72.6847 867.78 73.387 866.604 73.387ZM886.247 73C885.846 73 885.688 72.8137 885.774 72.441L889.859 55.284C890.002 54.6533 890.017 54.166 889.902 53.822C889.816 53.4493 889.558 53.263 889.128 53.263C888.612 53.263 888.039 53.65 887.408 54.424C886.806 55.1693 886.118 56.6027 885.344 58.724C885.229 59.0967 885.029 59.283 884.742 59.283C884.312 59.283 884.197 59.025 884.398 58.509C885.029 56.531 885.688 54.983 886.376 53.865C887.093 52.747 887.809 51.9587 888.526 51.5C889.243 51.0413 889.902 50.812 890.504 50.812C891.45 50.812 892.124 51.1703 892.525 51.887C892.926 52.575 892.941 53.7217 892.568 55.327L892.095 57.348C892.066 57.5487 892.109 57.6633 892.224 57.692C892.339 57.7207 892.439 57.649 892.525 57.477C893.614 54.983 894.603 53.2487 895.492 52.274C896.381 51.2993 897.398 50.812 898.545 50.812C899.319 50.812 899.892 51.027 900.265 51.457C900.666 51.8583 900.867 52.4173 900.867 53.134C900.867 53.8507 900.695 54.424 900.351 54.854C900.007 55.284 899.563 55.499 899.018 55.499C898.559 55.499 898.23 55.3843 898.029 55.155C897.828 54.9257 897.671 54.6677 897.556 54.381C897.47 54.0657 897.37 53.7933 897.255 53.564C897.14 53.3347 896.954 53.22 896.696 53.22C896.266 53.22 895.707 53.7647 895.019 54.854C894.331 55.9433 893.586 57.4197 892.783 59.283C892.009 61.1177 891.249 63.1817 890.504 65.475C889.787 67.7683 889.157 70.119 888.612 72.527C888.526 72.8423 888.325 73 888.01 73H886.247ZM902.569 82.288C900.305 82.288 898.585 81.8723 897.409 81.041C896.234 80.2097 895.646 79.2207 895.646 78.074C895.646 77.0707 896.048 76.0817 896.85 75.107C897.624 74.161 899.072 73.0717 901.193 71.839C901.509 71.667 901.681 71.4807 901.709 71.28C901.767 71.0507 901.638 70.8357 901.322 70.635C900.52 70.119 900.032 69.517 899.86 68.829C899.717 68.141 899.903 67.6537 900.419 67.367L903.687 65.475C903.974 65.3317 904.117 65.1597 904.117 64.959C904.146 64.7297 904.003 64.529 903.687 64.357C902.913 63.8983 902.326 63.2533 901.924 62.422C901.552 61.562 901.365 60.6303 901.365 59.627C901.365 58.079 901.738 56.6457 902.483 55.327C903.257 53.9797 904.275 52.8903 905.536 52.059C906.826 51.2277 908.26 50.812 909.836 50.812C910.496 50.812 911.055 50.898 911.513 51.07C911.857 51.1847 912.115 51.07 912.287 50.726C912.775 49.6653 913.391 48.834 914.136 48.232C914.91 47.6013 915.713 47.286 916.544 47.286C917.146 47.286 917.605 47.4437 917.92 47.759C918.264 48.0743 918.436 48.5043 918.436 49.049C918.436 49.5937 918.279 50.038 917.963 50.382C917.648 50.726 917.247 50.898 916.759 50.898C916.387 50.898 916.1 50.8263 915.899 50.683C915.727 50.5397 915.57 50.3963 915.426 50.253C915.283 50.1097 915.054 50.038 914.738 50.038C914.108 50.038 913.606 50.3963 913.233 51.113C913.119 51.371 913.09 51.6147 913.147 51.844C913.205 52.0447 913.319 52.2597 913.491 52.489C914.237 53.4637 914.609 54.6963 914.609 56.187C914.609 57.5343 914.308 58.8243 913.706 60.057C913.133 61.261 912.33 62.293 911.298 63.153C910.295 63.9843 909.134 64.5433 907.815 64.83C907.299 64.9447 906.826 65.088 906.396 65.26C905.995 65.4033 905.479 65.6757 904.848 66.077L903.128 67.109C902.698 67.367 902.584 67.6967 902.784 68.098C902.985 68.4707 903.544 68.829 904.461 69.173L908.159 70.549C909.765 71.1223 910.868 71.8247 911.47 72.656C912.101 73.4873 912.416 74.462 912.416 75.58C912.416 76.956 911.958 78.1457 911.04 79.149C910.152 80.1523 908.962 80.9263 907.471 81.471C905.981 82.0157 904.347 82.288 902.569 82.288ZM904.246 60.401C904.246 61.7197 904.433 62.68 904.805 63.282C905.207 63.8553 905.766 64.142 906.482 64.142C907.4 64.142 908.245 63.7263 909.019 62.895C909.822 62.035 910.467 60.9457 910.954 59.627C911.442 58.2797 911.685 56.8893 911.685 55.456C911.685 54.0227 911.499 53.048 911.126 52.532C910.754 51.9873 910.195 51.715 909.449 51.715C908.561 51.715 907.715 52.145 906.912 53.005C906.11 53.8363 905.465 54.9113 904.977 56.23C904.49 57.5487 904.246 58.939 904.246 60.401ZM903.042 81.213C904.16 81.213 905.207 81.0267 906.181 80.654C907.156 80.2813 907.944 79.751 908.546 79.063C909.177 78.375 909.492 77.558 909.492 76.612C909.492 75.666 909.249 74.8777 908.761 74.247C908.303 73.645 907.385 73.086 906.009 72.57L905.192 72.269C904.676 72.0683 904.16 71.9967 903.644 72.054C903.128 72.1113 902.641 72.2547 902.182 72.484C900.634 73.344 899.588 74.1467 899.043 74.892C898.499 75.6373 898.226 76.4543 898.226 77.343C898.226 78.4037 898.613 79.3067 899.387 80.052C900.161 80.826 901.38 81.213 903.042 81.213Z" fill="black"/>
<path d="M33.7852 322V222.855H55.832C62.4284 222.855 68.0729 223.741 72.7656 225.512C77.5026 227.238 81.5091 230.049 84.7852 233.945C88.1055 237.797 90.5404 242.91 92.0898 249.285C93.6836 255.66 94.4805 263.408 94.4805 272.527C94.4805 278.77 94.1484 284.259 93.4844 288.996C92.8646 293.689 91.6914 298.182 89.9648 302.477C88.2826 306.771 86.0247 310.312 83.1914 313.102C80.3581 315.846 76.6393 318.016 72.0352 319.609C67.4753 321.203 62.0742 322 55.832 322H33.7852ZM58.1562 300.617H60.2148C62.2956 300.617 63.9779 300.064 65.2617 298.957C66.5898 297.806 67.5859 295.947 68.25 293.379C68.9583 290.767 69.4232 287.845 69.6445 284.613C69.8659 281.382 69.9766 277.154 69.9766 271.93C69.9766 261.393 69.2682 254.155 67.8516 250.215C66.4792 246.23 63.9336 244.238 60.2148 244.238H58.1562V300.617ZM126.292 323.328C121.776 323.328 117.792 322.642 114.339 321.27C110.93 319.897 107.919 317.728 105.307 314.762C102.74 311.796 100.792 307.811 99.4636 302.809C98.1355 297.806 97.4714 291.829 97.4714 284.879C97.4714 278.15 98.1133 272.35 99.3972 267.48C100.681 262.611 102.563 258.693 105.042 255.727C107.565 252.76 110.576 250.591 114.073 249.219C117.57 247.802 121.643 247.094 126.292 247.094C136.651 247.094 143.978 250.658 148.272 257.785C152.611 264.913 154.448 275.671 153.784 290.059H121.51C121.51 295.902 121.887 300.02 122.639 302.41C123.392 304.757 124.609 305.93 126.292 305.93C127.753 305.93 128.859 305.243 129.612 303.871C130.409 302.499 130.896 300.152 131.073 296.832H153.784C152.987 306.262 150.242 313.035 145.55 317.152C140.857 321.27 134.438 323.328 126.292 323.328ZM126.292 264.625C124.742 264.625 123.591 265.533 122.839 267.348C122.086 269.118 121.643 272.24 121.51 276.711H131.073C130.94 272.417 130.475 269.34 129.678 267.48C128.926 265.577 127.797 264.625 126.292 264.625ZM182.208 323.328C173.443 323.328 166.802 321.181 162.287 316.887C157.771 312.592 155.447 306.682 155.314 299.156H177.029C177.029 302.654 177.405 305.044 178.158 306.328C178.955 307.612 180.216 308.254 181.943 308.254C184.466 308.254 185.728 306.727 185.728 303.672C185.728 302.299 185.507 301.126 185.064 300.152C184.665 299.178 183.935 298.293 182.872 297.496C181.854 296.699 180.836 296.035 179.818 295.504C178.8 294.928 177.361 294.22 175.501 293.379C174.926 293.113 174.483 292.914 174.173 292.781C171.428 291.497 169.06 290.191 167.068 288.863C165.076 287.535 163.216 285.964 161.49 284.148C159.763 282.289 158.457 280.142 157.572 277.707C156.686 275.228 156.244 272.483 156.244 269.473C156.244 262.478 158.501 257.01 163.017 253.07C167.533 249.086 174.151 247.094 182.872 247.094C190.886 247.094 197.172 249.13 201.732 253.203C206.292 257.232 208.572 262.987 208.572 270.469H187.521C187.344 267.104 186.901 264.824 186.193 263.629C185.484 262.389 184.333 261.77 182.74 261.77C180.305 261.77 179.087 263.452 179.087 266.816C179.087 268.809 179.884 270.402 181.478 271.598C183.116 272.749 185.861 274.143 189.712 275.781C191.173 276.401 192.192 276.844 192.767 277.109C193.343 277.375 194.471 277.973 196.154 278.902C197.836 279.788 199.12 280.607 200.005 281.359C200.935 282.068 202.086 283.108 203.458 284.48C204.875 285.853 205.938 287.247 206.646 288.664C207.354 290.036 207.996 291.719 208.572 293.711C209.147 295.659 209.435 297.74 209.435 299.953C209.435 307.214 207.133 312.924 202.529 317.086C197.969 321.247 191.195 323.328 182.208 323.328ZM212.094 241.516V222.855H236.199V241.516H212.094ZM212.094 322V248.422H236.199V322H212.094ZM267.413 346.039C259.71 346.039 253.689 343.958 249.35 339.797C245.012 335.68 242.865 329.969 242.909 322.664H264.956C264.956 327.755 266.395 330.301 269.272 330.301C272.194 330.301 273.655 327.224 273.655 321.07V307.855H272.659C271.375 311.309 269.516 313.832 267.081 315.426C264.646 317.02 261.946 317.816 258.979 317.816C256.013 317.816 253.423 317.263 251.21 316.156C248.996 315.049 247.159 313.5 245.698 311.508C244.281 309.516 243.108 307.014 242.179 304.004C241.293 300.993 240.673 297.74 240.319 294.242C239.965 290.745 239.788 286.76 239.788 282.289C239.788 276.888 240.098 272.151 240.718 268.078C241.337 264.005 242.179 260.663 243.241 258.051C244.348 255.395 245.72 253.247 247.358 251.609C248.996 249.927 250.745 248.754 252.604 248.09C254.508 247.426 256.633 247.094 258.979 247.094C265.841 247.094 270.401 250.303 272.659 256.723H273.655L274.319 248.422H297.561V316.688C297.561 322.31 297.008 326.98 295.901 330.699C294.839 334.418 293.068 337.428 290.589 339.73C288.11 342.033 285.011 343.648 281.292 344.578C277.573 345.552 272.947 346.039 267.413 346.039ZM265.089 296.434C265.841 299.046 267.103 300.352 268.874 300.352C270.645 300.352 271.884 299.046 272.593 296.434C273.301 293.822 273.655 289.793 273.655 284.348V280.496C273.655 274.652 273.257 270.557 272.46 268.211C271.707 265.82 270.512 264.625 268.874 264.625C266.926 264.625 265.62 266.02 264.956 268.809C264.292 271.598 263.96 276.091 263.96 282.289C263.96 289.062 264.336 293.777 265.089 296.434ZM302.146 322V248.422H325.587L326.252 257.121H327.048C330.192 250.436 335.172 247.094 341.99 247.094C348.232 247.094 352.77 249.241 355.603 253.535C358.436 257.829 359.853 264.913 359.853 274.785V322H335.88V276.445C335.88 272.505 335.504 269.805 334.752 268.344C334.043 266.839 332.892 266.086 331.298 266.086C329.395 266.086 328.067 267.016 327.314 268.875C326.606 270.69 326.252 273.523 326.252 277.375V322H302.146ZM391.996 323.328C387.481 323.328 383.496 322.642 380.043 321.27C376.634 319.897 373.624 317.728 371.012 314.762C368.444 311.796 366.496 307.811 365.168 302.809C363.84 297.806 363.176 291.829 363.176 284.879C363.176 278.15 363.818 272.35 365.102 267.48C366.386 262.611 368.267 258.693 370.746 255.727C373.27 252.76 376.28 250.591 379.778 249.219C383.275 247.802 387.348 247.094 391.996 247.094C402.356 247.094 409.683 250.658 413.977 257.785C418.315 264.913 420.153 275.671 419.489 290.059H387.215C387.215 295.902 387.591 300.02 388.344 302.41C389.097 304.757 390.314 305.93 391.996 305.93C393.457 305.93 394.564 305.243 395.317 303.871C396.114 302.499 396.601 300.152 396.778 296.832H419.489C418.692 306.262 415.947 313.035 411.254 317.152C406.562 321.27 400.142 323.328 391.996 323.328ZM391.996 264.625C390.447 264.625 389.296 265.533 388.543 267.348C387.791 269.118 387.348 272.24 387.215 276.711H396.778C396.645 272.417 396.18 269.34 395.383 267.48C394.631 265.577 393.502 264.625 391.996 264.625ZM440.874 323.328C438.483 323.328 436.358 322.974 434.499 322.266C432.684 321.602 430.957 320.384 429.319 318.613C427.681 316.842 426.331 314.54 425.269 311.707C424.206 308.874 423.365 305.221 422.745 300.75C422.125 296.279 421.815 291.077 421.815 285.145C421.815 280.23 421.993 275.892 422.347 272.129C422.701 268.366 423.321 264.868 424.206 261.637C425.092 258.405 426.243 255.749 427.659 253.668C429.12 251.587 430.957 249.971 433.171 248.82C435.384 247.669 437.952 247.094 440.874 247.094C444.239 247.094 447.116 247.957 449.507 249.684C451.942 251.41 453.779 253.889 455.019 257.121H455.948V222.855H479.855V322H456.48L455.948 313.301H455.019C452.584 319.986 447.869 323.328 440.874 323.328ZM451.034 304.602C452.185 304.602 453.093 304.092 453.757 303.074C454.465 302.056 454.996 300.263 455.351 297.695C455.749 295.128 455.948 291.63 455.948 287.203V283.219C455.948 277.154 455.572 272.704 454.819 269.871C454.111 266.993 452.849 265.555 451.034 265.555C449.175 265.555 447.869 266.993 447.116 269.871C446.364 272.704 445.987 277.796 445.987 285.145C445.987 292.184 446.297 297.186 446.917 300.152C447.581 303.118 448.953 304.602 451.034 304.602ZM506.29 322V267.48L499.715 267.879V248.422L506.29 248.688V243.773C506.29 236.867 508.016 231.665 511.469 228.168C514.922 224.626 520.589 222.855 528.469 222.855H539.028V239.723H535.243C534.092 239.723 533.14 239.878 532.387 240.188C531.679 240.497 531.192 241.007 530.926 241.715C530.661 242.379 530.484 242.977 530.395 243.508C530.351 243.995 530.329 244.725 530.329 245.699V248.688L538.098 248.422V267.879L530.329 267.48V322H506.29ZM567.054 323.328C562.538 323.328 558.554 322.642 555.101 321.27C551.692 319.897 548.681 317.728 546.07 314.762C543.502 311.796 541.554 307.811 540.226 302.809C538.898 297.806 538.234 291.829 538.234 284.879C538.234 278.15 538.876 272.35 540.159 267.48C541.443 262.611 543.325 258.693 545.804 255.727C548.327 252.76 551.338 250.591 554.835 249.219C558.333 247.802 562.405 247.094 567.054 247.094C576.528 247.094 583.744 250.082 588.702 256.059C593.661 261.991 596.14 271.598 596.14 284.879C596.14 298.47 593.639 308.276 588.636 314.297C583.633 320.318 576.439 323.328 567.054 323.328ZM567.054 304.602C569.046 304.602 570.374 303.229 571.038 300.484C571.747 297.695 572.101 292.582 572.101 285.145C572.101 279.965 571.946 276.003 571.636 273.258C571.326 270.513 570.817 268.565 570.109 267.414C569.4 266.263 568.382 265.688 567.054 265.688C565.15 265.688 563.866 267.038 563.202 269.738C562.583 272.439 562.273 277.574 562.273 285.145C562.273 292.582 562.583 297.695 563.202 300.484C563.866 303.229 565.15 304.602 567.054 304.602ZM599.529 322V248.422H621.443L622.24 259.18H623.236C624.21 255.417 625.494 252.694 627.088 251.012C628.726 249.285 631.382 248.289 635.057 248.023C635.145 248.023 635.322 248.001 635.588 247.957C635.853 247.913 636.075 247.891 636.252 247.891V271.266C635.234 271.354 633.507 271.398 631.072 271.398C628.195 271.398 626.225 272.173 625.162 273.723C624.1 275.228 623.59 278.438 623.635 283.352V322H599.529ZM656.91 322L656.644 248.422H680.218L680.882 257.121H681.679C684.955 250.436 690.179 247.094 697.351 247.094C705.674 247.094 711.053 250.901 713.488 258.516H714.351C717.317 250.901 722.74 247.094 730.62 247.094C737.394 247.094 742.352 249.241 745.495 253.535C748.639 257.829 750.21 264.913 750.21 274.785V322H726.038V276.445C726.038 272.682 725.64 270.026 724.843 268.477C724.046 266.883 722.762 266.086 720.992 266.086C718.955 266.086 717.538 266.993 716.742 268.809C715.945 270.624 715.546 273.479 715.546 277.375V322H691.507V276.445C691.507 272.594 691.087 269.915 690.245 268.41C689.404 266.861 688.098 266.086 686.328 266.086C684.335 266.086 682.919 267.016 682.078 268.875C681.281 270.734 680.882 273.568 680.882 277.375V322H656.91ZM782.486 323.328C777.971 323.328 773.986 322.642 770.533 321.27C767.124 319.897 764.114 317.728 761.502 314.762C758.934 311.796 756.986 307.811 755.658 302.809C754.33 297.806 753.666 291.829 753.666 284.879C753.666 278.15 754.308 272.35 755.592 267.48C756.876 262.611 758.757 258.693 761.236 255.727C763.76 252.76 766.77 250.591 770.268 249.219C773.765 247.802 777.838 247.094 782.486 247.094C791.96 247.094 799.176 250.082 804.135 256.059C809.093 261.991 811.572 271.598 811.572 284.879C811.572 298.47 809.071 308.276 804.068 314.297C799.066 320.318 791.872 323.328 782.486 323.328ZM782.486 304.602C784.479 304.602 785.807 303.229 786.471 300.484C787.179 297.695 787.533 292.582 787.533 285.145C787.533 279.965 787.378 276.003 787.068 273.258C786.759 270.513 786.249 268.565 785.541 267.414C784.833 266.263 783.815 265.688 782.486 265.688C780.583 265.688 779.299 267.038 778.635 269.738C778.015 272.439 777.705 277.574 777.705 285.145C777.705 292.582 778.015 297.695 778.635 300.484C779.299 303.229 780.583 304.602 782.486 304.602ZM814.962 322V248.422H836.876L837.673 259.18H838.669C839.643 255.417 840.927 252.694 842.52 251.012C844.158 249.285 846.815 248.289 850.489 248.023C850.578 248.023 850.755 248.001 851.02 247.957C851.286 247.913 851.507 247.891 851.684 247.891V271.266C850.666 271.354 848.94 271.398 846.505 271.398C843.627 271.398 841.657 272.173 840.595 273.723C839.532 275.228 839.023 278.438 839.067 283.352V322H814.962ZM880.906 323.328C876.39 323.328 872.406 322.642 868.953 321.27C865.544 319.897 862.533 317.728 859.921 314.762C857.354 311.796 855.406 307.811 854.078 302.809C852.75 297.806 852.085 291.829 852.085 284.879C852.085 278.15 852.727 272.35 854.011 267.48C855.295 262.611 857.177 258.693 859.656 255.727C862.179 252.76 865.19 250.591 868.687 249.219C872.184 247.802 876.257 247.094 880.906 247.094C891.265 247.094 898.592 250.658 902.886 257.785C907.225 264.913 909.062 275.671 908.398 290.059H876.125C876.125 295.902 876.501 300.02 877.253 302.41C878.006 304.757 879.223 305.93 880.906 305.93C882.367 305.93 883.473 305.243 884.226 303.871C885.023 302.499 885.51 300.152 885.687 296.832H908.398C907.601 306.262 904.856 313.035 900.164 317.152C895.471 321.27 889.052 323.328 880.906 323.328ZM880.906 264.625C879.356 264.625 878.205 265.533 877.453 267.348C876.7 269.118 876.257 272.24 876.125 276.711H885.687C885.554 272.417 885.089 269.34 884.292 267.48C883.54 265.577 882.411 264.625 880.906 264.625ZM33.7852 359.516V340.855H57.8906V359.516H33.7852ZM33.7852 440V366.422H57.8906V440H33.7852ZM62.6745 440V366.422H86.1159L86.78 375.121H87.5769C90.7201 368.436 95.7006 365.094 102.518 365.094C108.76 365.094 113.298 367.241 116.132 371.535C118.965 375.829 120.382 382.913 120.382 392.785V440H96.4089V394.445C96.4089 390.505 96.0326 387.805 95.28 386.344C94.5717 384.839 93.4206 384.086 91.8269 384.086C89.9232 384.086 88.5951 385.016 87.8425 386.875C87.1342 388.69 86.78 391.523 86.78 395.375V440H62.6745ZM144.224 440C138.247 440 133.865 438.628 131.076 435.883C128.331 433.138 126.958 428.888 126.958 423.133V385.48L121.779 385.879V366.422L126.958 366.688V349.156L151.33 347.098V366.688L157.439 366.422V385.879L151.33 385.48V418.219C151.33 419.812 151.507 420.853 151.861 421.34C152.215 421.827 152.99 422.07 154.185 422.07H157.439V440H144.224ZM159.899 359.516V340.855H184.004V359.516H159.899ZM159.899 440V366.422H184.004V440H159.899ZM189.054 440L188.788 366.422H212.362L213.026 375.121H213.823C217.099 368.436 222.323 365.094 229.495 365.094C237.818 365.094 243.197 368.901 245.632 376.516H246.495C249.461 368.901 254.884 365.094 262.765 365.094C269.538 365.094 274.496 367.241 277.64 371.535C280.783 375.829 282.354 382.913 282.354 392.785V440H258.182V394.445C258.182 390.682 257.784 388.026 256.987 386.477C256.19 384.883 254.906 384.086 253.136 384.086C251.099 384.086 249.682 384.993 248.886 386.809C248.089 388.624 247.69 391.479 247.69 395.375V440H223.651V394.445C223.651 390.594 223.231 387.915 222.39 386.41C221.548 384.861 220.242 384.086 218.472 384.086C216.479 384.086 215.063 385.016 214.222 386.875C213.425 388.734 213.026 391.568 213.026 395.375V440H189.054ZM304.869 441.328C301.947 441.328 299.379 440.753 297.166 439.602C294.952 438.451 293.115 436.835 291.654 434.754C290.237 432.673 289.086 430.017 288.201 426.785C287.315 423.553 286.696 420.034 286.341 416.227C285.987 412.419 285.81 408.059 285.81 403.145C285.81 397.212 286.12 392.033 286.74 387.605C287.36 383.134 288.201 379.504 289.263 376.715C290.37 373.882 291.742 371.579 293.38 369.809C295.018 368.038 296.745 366.82 298.56 366.156C300.42 365.448 302.522 365.094 304.869 365.094C311.819 365.094 316.534 368.436 319.013 375.121H319.943L320.474 366.422H343.849V440H319.943V431.301H319.013C317.774 434.621 315.892 437.122 313.369 438.805C310.89 440.487 308.056 441.328 304.869 441.328ZM315.029 422.602C316.844 422.602 318.106 421.207 318.814 418.418C319.567 415.629 319.943 411.224 319.943 405.203V401.219C319.943 394.667 319.545 390.085 318.748 387.473C317.951 384.861 316.711 383.555 315.029 383.555C312.992 383.555 311.642 385.06 310.978 388.07C310.314 391.081 309.982 396.105 309.982 403.145C309.982 410.538 310.358 415.629 311.111 418.418C311.864 421.207 313.17 422.602 315.029 422.602ZM368.555 440C362.578 440 358.196 438.628 355.407 435.883C352.662 433.138 351.289 428.888 351.289 423.133V385.48L346.11 385.879V366.422L351.289 366.688V349.156L375.66 347.098V366.688L381.77 366.422V385.879L375.66 385.48V418.219C375.66 419.812 375.838 420.853 376.192 421.34C376.546 421.827 377.321 422.07 378.516 422.07H381.77V440H368.555ZM410.394 441.328C405.878 441.328 401.894 440.642 398.44 439.27C395.032 437.897 392.021 435.728 389.409 432.762C386.842 429.796 384.894 425.811 383.565 420.809C382.237 415.806 381.573 409.829 381.573 402.879C381.573 396.15 382.215 390.35 383.499 385.48C384.783 380.611 386.664 376.693 389.144 373.727C391.667 370.76 394.677 368.591 398.175 367.219C401.672 365.802 405.745 365.094 410.394 365.094C420.753 365.094 428.08 368.658 432.374 375.785C436.713 382.913 438.55 393.671 437.886 408.059H405.612C405.612 413.902 405.989 418.02 406.741 420.41C407.494 422.757 408.711 423.93 410.394 423.93C411.855 423.93 412.961 423.243 413.714 421.871C414.511 420.499 414.998 418.152 415.175 414.832H437.886C437.089 424.262 434.344 431.035 429.651 435.152C424.959 439.27 418.539 441.328 410.394 441.328ZM410.394 382.625C408.844 382.625 407.693 383.533 406.94 385.348C406.188 387.118 405.745 390.24 405.612 394.711H415.175C415.042 390.417 414.577 387.34 413.78 385.48C413.028 383.577 411.899 382.625 410.394 382.625ZM485.571 464.039C477.868 464.039 471.847 461.958 467.508 457.797C463.17 453.68 461.023 447.969 461.067 440.664H483.114C483.114 445.755 484.553 448.301 487.43 448.301C490.352 448.301 491.813 445.224 491.813 439.07V425.855H490.817C489.533 429.309 487.674 431.832 485.239 433.426C482.804 435.02 480.103 435.816 477.137 435.816C474.171 435.816 471.581 435.263 469.368 434.156C467.154 433.049 465.317 431.5 463.856 429.508C462.439 427.516 461.266 425.014 460.336 422.004C459.451 418.993 458.831 415.74 458.477 412.242C458.123 408.745 457.946 404.76 457.946 400.289C457.946 394.888 458.256 390.151 458.875 386.078C459.495 382.005 460.336 378.663 461.399 376.051C462.506 373.395 463.878 371.247 465.516 369.609C467.154 367.927 468.903 366.754 470.762 366.09C472.666 365.426 474.791 365.094 477.137 365.094C483.999 365.094 488.559 368.303 490.817 374.723H491.813L492.477 366.422H515.719V434.688C515.719 440.31 515.166 444.98 514.059 448.699C512.997 452.418 511.226 455.428 508.747 457.73C506.267 460.033 503.168 461.648 499.45 462.578C495.731 463.552 491.105 464.039 485.571 464.039ZM483.247 414.434C483.999 417.046 485.261 418.352 487.032 418.352C488.803 418.352 490.042 417.046 490.75 414.434C491.459 411.822 491.813 407.793 491.813 402.348V398.496C491.813 392.652 491.415 388.557 490.618 386.211C489.865 383.82 488.67 382.625 487.032 382.625C485.084 382.625 483.778 384.02 483.114 386.809C482.45 389.598 482.118 394.091 482.118 400.289C482.118 407.062 482.494 411.777 483.247 414.434ZM538.167 441.328C535.245 441.328 532.678 440.753 530.464 439.602C528.251 438.451 526.413 436.835 524.952 434.754C523.536 432.673 522.385 430.017 521.499 426.785C520.614 423.553 519.994 420.034 519.64 416.227C519.286 412.419 519.109 408.059 519.109 403.145C519.109 397.212 519.418 392.033 520.038 387.605C520.658 383.134 521.499 379.504 522.562 376.715C523.668 373.882 525.041 371.579 526.679 369.809C528.317 368.038 530.043 366.82 531.859 366.156C533.718 365.448 535.821 365.094 538.167 365.094C545.118 365.094 549.833 368.436 552.312 375.121H553.241L553.773 366.422H577.148V440H553.241V431.301H552.312C551.072 434.621 549.191 437.122 546.667 438.805C544.188 440.487 541.355 441.328 538.167 441.328ZM548.327 422.602C550.142 422.602 551.404 421.207 552.112 418.418C552.865 415.629 553.241 411.224 553.241 405.203V401.219C553.241 394.667 552.843 390.085 552.046 387.473C551.249 384.861 550.01 383.555 548.327 383.555C546.291 383.555 544.941 385.06 544.277 388.07C543.612 391.081 543.28 396.105 543.28 403.145C543.28 410.538 543.657 415.629 544.409 418.418C545.162 421.207 546.468 422.602 548.327 422.602ZM601.853 440C595.877 440 591.494 438.628 588.705 435.883C585.96 433.138 584.588 428.888 584.588 423.133V385.48L579.408 385.879V366.422L584.588 366.688V349.156L608.959 347.098V366.688L615.068 366.422V385.879L608.959 385.48V418.219C608.959 419.812 609.136 420.853 609.49 421.34C609.844 421.827 610.619 422.07 611.814 422.07H615.068V440H601.853ZM617.395 440V340.855H641.501V375.121H642.297C645.441 368.436 650.421 365.094 657.239 365.094C663.481 365.094 668.019 367.241 670.852 371.535C673.686 375.829 675.102 382.913 675.102 392.785V440H651.13V394.445C651.13 390.505 650.753 387.805 650.001 386.344C649.292 384.839 648.141 384.086 646.547 384.086C644.644 384.086 643.316 385.016 642.563 386.875C641.855 388.69 641.501 391.523 641.501 395.375V440H617.395ZM707.245 441.328C702.73 441.328 698.745 440.642 695.292 439.27C691.884 437.897 688.873 435.728 686.261 432.762C683.693 429.796 681.745 425.811 680.417 420.809C679.089 415.806 678.425 409.829 678.425 402.879C678.425 396.15 679.067 390.35 680.351 385.48C681.635 380.611 683.516 376.693 685.995 373.727C688.519 370.76 691.529 368.591 695.027 367.219C698.524 365.802 702.597 365.094 707.245 365.094C717.605 365.094 724.932 368.658 729.226 375.785C733.564 382.913 735.402 393.671 734.738 408.059H702.464C702.464 413.902 702.841 418.02 703.593 420.41C704.346 422.757 705.563 423.93 707.245 423.93C708.706 423.93 709.813 423.243 710.566 421.871C711.363 420.499 711.85 418.152 712.027 414.832H734.738C733.941 424.262 731.196 431.035 726.503 435.152C721.811 439.27 715.391 441.328 707.245 441.328ZM707.245 382.625C705.696 382.625 704.545 383.533 703.792 385.348C703.04 387.118 702.597 390.24 702.464 394.711H712.027C711.894 390.417 711.429 387.34 710.632 385.48C709.88 383.577 708.751 382.625 707.245 382.625ZM738.26 440V366.422H760.174L760.971 377.18H761.967C762.941 373.417 764.225 370.694 765.818 369.012C767.456 367.285 770.113 366.289 773.787 366.023C773.876 366.023 774.053 366.001 774.318 365.957C774.584 365.913 774.805 365.891 774.982 365.891V389.266C773.964 389.354 772.238 389.398 769.803 389.398C766.925 389.398 764.955 390.173 763.893 391.723C762.83 393.228 762.321 396.438 762.365 401.352V440H738.26ZM777.774 359.516V340.855H801.88V359.516H777.774ZM777.774 440V366.422H801.88V440H777.774ZM806.664 440V366.422H830.105L830.769 375.121H831.566C834.709 368.436 839.69 365.094 846.507 365.094C852.75 365.094 857.287 367.241 860.121 371.535C862.954 375.829 864.371 382.913 864.371 392.785V440H840.398V394.445C840.398 390.505 840.022 387.805 839.269 386.344C838.561 384.839 837.41 384.086 835.816 384.086C833.912 384.086 832.584 385.016 831.832 386.875C831.123 388.69 830.769 391.523 830.769 395.375V440H806.664ZM895.319 464.039C887.615 464.039 881.595 461.958 877.256 457.797C872.918 453.68 870.77 447.969 870.815 440.664H892.862C892.862 445.755 894.3 448.301 897.178 448.301C900.1 448.301 901.561 445.224 901.561 439.07V425.855H900.565C899.281 429.309 897.421 431.832 894.987 433.426C892.552 435.02 889.851 435.816 886.885 435.816C883.919 435.816 881.329 435.263 879.115 434.156C876.902 433.049 875.065 431.5 873.604 429.508C872.187 427.516 871.014 425.014 870.084 422.004C869.199 418.993 868.579 415.74 868.225 412.242C867.871 408.745 867.694 404.76 867.694 400.289C867.694 394.888 868.003 390.151 868.623 386.078C869.243 382.005 870.084 378.663 871.147 376.051C872.253 373.395 873.626 371.247 875.264 369.609C876.902 367.927 878.651 366.754 880.51 366.09C882.414 365.426 884.539 365.094 886.885 365.094C893.747 365.094 898.307 368.303 900.565 374.723H901.561L902.225 366.422H925.467V434.688C925.467 440.31 924.914 444.98 923.807 448.699C922.744 452.418 920.974 455.428 918.494 457.73C916.015 460.033 912.916 461.648 909.198 462.578C905.479 463.552 900.852 464.039 895.319 464.039ZM892.994 414.434C893.747 417.046 895.009 418.352 896.78 418.352C898.55 418.352 899.79 417.046 900.498 414.434C901.207 411.822 901.561 407.793 901.561 402.348V398.496C901.561 392.652 901.162 388.557 900.365 386.211C899.613 383.82 898.418 382.625 896.78 382.625C894.832 382.625 893.526 384.02 892.862 386.809C892.198 389.598 891.865 394.091 891.865 400.289C891.865 407.062 892.242 411.777 892.994 414.434ZM954.954 441.328C946.188 441.328 939.548 439.181 935.032 434.887C930.517 430.592 928.192 424.682 928.06 417.156H949.774C949.774 420.654 950.151 423.044 950.903 424.328C951.7 425.612 952.962 426.254 954.688 426.254C957.212 426.254 958.474 424.727 958.474 421.672C958.474 420.299 958.252 419.126 957.81 418.152C957.411 417.178 956.681 416.293 955.618 415.496C954.6 414.699 953.582 414.035 952.563 413.504C951.545 412.928 950.106 412.22 948.247 411.379C947.671 411.113 947.229 410.914 946.919 410.781C944.174 409.497 941.806 408.191 939.813 406.863C937.821 405.535 935.962 403.964 934.235 402.148C932.509 400.289 931.203 398.142 930.317 395.707C929.432 393.228 928.989 390.483 928.989 387.473C928.989 380.478 931.247 375.01 935.763 371.07C940.278 367.086 946.897 365.094 955.618 365.094C963.631 365.094 969.918 367.13 974.477 371.203C979.037 375.232 981.317 380.987 981.317 388.469H960.267C960.089 385.104 959.647 382.824 958.938 381.629C958.23 380.389 957.079 379.77 955.485 379.77C953.05 379.77 951.833 381.452 951.833 384.816C951.833 386.809 952.63 388.402 954.224 389.598C955.862 390.749 958.606 392.143 962.458 393.781C963.919 394.401 964.937 394.844 965.513 395.109C966.088 395.375 967.217 395.973 968.899 396.902C970.582 397.788 971.865 398.607 972.751 399.359C973.681 400.068 974.832 401.108 976.204 402.48C977.621 403.853 978.683 405.247 979.392 406.664C980.1 408.036 980.742 409.719 981.317 411.711C981.893 413.659 982.181 415.74 982.181 417.953C982.181 425.214 979.879 430.924 975.274 435.086C970.714 439.247 963.941 441.328 954.954 441.328Z" fill="black"/>
</svg>
