<svg width="1160" height="480" viewBox="0 0 1160 480" fill="none" xmlns="http://www.w3.org/2000/svg">
<rect width="1160" height="480" fill="#EB5128"/>
<path d="M31.1968 65V33.6528H39.2383V65H31.1968ZM41.6528 65V33.6528H49.7783L53.1377 49.2529H53.4316L53.0537 40.2666V33.6528H60.1084V65H52.0669L48.5815 49.6099H48.3296L48.7075 58.2393V65H41.6528ZM71.5303 65.3779C70.0885 65.3779 68.8218 65.133 67.73 64.6431C66.6522 64.1392 65.7563 63.4463 65.0425 62.5645C64.3426 61.6826 63.7687 60.5628 63.3208 59.2051C62.8729 57.8473 62.5579 56.3706 62.376 54.7749C62.194 53.1652 62.103 51.3385 62.103 49.2949C62.103 47.2513 62.194 45.4386 62.376 43.8569C62.5719 42.2612 62.9009 40.7845 63.3628 39.4268C63.8387 38.055 64.4476 36.9282 65.1895 36.0464C65.9313 35.1646 66.8761 34.4787 68.0239 33.9888C69.1717 33.4849 70.5085 33.2329 72.0342 33.2329C75.0716 33.2329 77.3602 34.1357 78.8999 35.9414C80.4536 37.7471 81.3215 40.7705 81.5034 45.0117H74.1968C74.0848 43.1361 73.8888 41.8203 73.6089 41.0645C73.3289 40.3086 72.818 39.9307 72.0762 39.9307C71.2083 39.9307 70.6274 40.6445 70.3335 42.0723C70.0396 43.486 69.8926 45.8936 69.8926 49.2949C69.8926 52.8083 70.0465 55.2508 70.3545 56.6226C70.6764 57.9943 71.2503 58.6802 72.0762 58.6802C72.846 58.6802 73.3639 58.2743 73.6299 57.4624C73.9098 56.6506 74.0988 55.2928 74.1968 53.3892H81.5034C81.4054 57.6304 80.5376 60.6888 78.8999 62.5645C77.2762 64.4401 74.8197 65.3779 71.5303 65.3779ZM83.3511 65V33.6528H90.9727V57.9873H96.5576V65H83.3511ZM106.489 65.3779C103.479 65.3779 101.205 64.5381 99.665 62.8584C98.1393 61.1647 97.3765 58.8411 97.3765 55.8877V33.6528H105.04V56.0137C105.04 56.8815 105.166 57.4904 105.418 57.8403C105.684 58.1763 106.076 58.3442 106.594 58.3442C107.168 58.3442 107.567 58.1483 107.791 57.7563C108.014 57.3504 108.126 56.7695 108.126 56.0137V33.6528H115.706V55.8877C115.706 59.0231 114.88 61.3887 113.229 62.9844C111.577 64.5801 109.33 65.3779 106.489 65.3779ZM118.079 65V33.6528H125.049C127.135 33.6528 128.92 33.9328 130.403 34.4927C131.901 35.0386 133.168 35.9274 134.204 37.1592C135.253 38.377 136.023 39.9937 136.513 42.0093C137.017 44.0249 137.269 46.4744 137.269 49.3579C137.269 51.3315 137.164 53.0672 136.954 54.5649C136.758 56.0487 136.387 57.4694 135.841 58.8271C135.309 60.1849 134.596 61.3047 133.7 62.1865C132.804 63.0544 131.628 63.7402 130.172 64.2441C128.731 64.748 127.023 65 125.049 65H118.079ZM125.784 58.2393H126.435C127.093 58.2393 127.625 58.0643 128.031 57.7144C128.451 57.3504 128.766 56.7625 128.976 55.9507C129.2 55.1248 129.347 54.201 129.417 53.1792C129.486 52.1574 129.521 50.8206 129.521 49.1689C129.521 45.8376 129.298 43.549 128.85 42.3032C128.416 41.0435 127.611 40.4136 126.435 40.4136H125.784V58.2393ZM139.075 65V33.6528H153.352V40.4136H146.696V45.8726H152.764V52.1504H146.696V58.2393H153.352V65H139.075ZM163.766 65.4199C160.673 65.4199 158.398 64.5171 156.942 62.7114C155.501 60.8918 154.78 58.3442 154.78 55.0688H161.436C161.436 56.7485 161.604 57.9313 161.939 58.6172C162.275 59.2891 162.793 59.625 163.493 59.625C164.081 59.625 164.501 59.408 164.753 58.9741C165.005 58.5262 165.131 57.8683 165.131 57.0005C165.131 55.8527 164.844 54.9429 164.27 54.271C163.696 53.5851 162.611 52.7593 161.016 51.7935C160.148 51.2756 159.399 50.7576 158.769 50.2397C158.139 49.7218 157.509 49.071 156.879 48.2871C156.25 47.5033 155.767 46.5794 155.431 45.5156C155.109 44.4518 154.948 43.262 154.948 41.9463C154.948 39.0628 155.732 36.9002 157.299 35.4585C158.881 34.0028 161.009 33.2749 163.682 33.2749C166.566 33.2749 168.763 34.0448 170.275 35.5845C171.801 37.1242 172.563 39.6017 172.563 43.0171H165.782C165.796 41.5474 165.67 40.5046 165.404 39.8887C165.152 39.2588 164.704 38.9438 164.06 38.9438C163.024 38.9438 162.506 39.7767 162.506 41.4424C162.506 42.5482 162.751 43.402 163.241 44.0039C163.731 44.5918 164.704 45.3267 166.16 46.2085C166.958 46.6844 167.657 47.1463 168.259 47.5942C168.861 48.0422 169.463 48.5811 170.065 49.2109C170.667 49.8268 171.157 50.4707 171.535 51.1426C171.927 51.8005 172.242 52.5773 172.479 53.4731C172.717 54.355 172.836 55.2998 172.836 56.3076C172.836 59.3451 172.046 61.6266 170.464 63.1523C168.896 64.6641 166.664 65.4199 163.766 65.4199Z" fill="black"/>
<circle cx="200.712" cy="49.7119" r="18.7119" stroke="black" stroke-width="2"/>
<path d="M197.031 53.8594L197.219 52.9375C197.375 52.1979 197.646 51.4792 198.031 50.7812C198.417 50.0729 198.839 49.4479 199.297 48.9062C199.766 48.3542 200.224 47.8281 200.672 47.3281C201.12 46.8281 201.516 46.3229 201.859 45.8125C202.214 45.2917 202.438 44.7969 202.531 44.3281C202.823 43.0052 202.516 42.3438 201.609 42.3438C200.714 42.3438 200.125 43.0781 199.844 44.5469H194.828C195.182 42.1406 196 40.349 197.281 39.1719C198.562 37.9844 200.177 37.3906 202.125 37.3906C204.406 37.3906 206.099 37.9531 207.203 39.0781C208.307 40.1927 208.641 41.8021 208.203 43.9062C208.026 44.75 207.719 45.5677 207.281 46.3594C206.854 47.1406 206.38 47.8385 205.859 48.4531C205.339 49.0573 204.823 49.6406 204.312 50.2031C203.802 50.7656 203.333 51.3542 202.906 51.9688C202.479 52.5729 202.188 53.1615 202.031 53.7344L201.984 53.8594H197.031ZM195.344 61L196.422 55.75H201.766L200.719 61H195.344Z" fill="black"/>
<path d="M364.619 73V41.6528H371.589C373.675 41.6528 375.46 41.9328 376.943 42.4927C378.441 43.0386 379.708 43.9274 380.744 45.1592C381.793 46.377 382.563 47.9937 383.053 50.0093C383.557 52.0249 383.809 54.4744 383.809 57.3579C383.809 59.3315 383.704 61.0672 383.494 62.5649C383.298 64.0487 382.927 65.4694 382.381 66.8271C381.849 68.1849 381.136 69.3047 380.24 70.1865C379.344 71.0544 378.168 71.7402 376.712 72.2441C375.271 72.748 373.563 73 371.589 73H364.619ZM372.324 66.2393H372.975C373.633 66.2393 374.165 66.0643 374.571 65.7144C374.991 65.3504 375.306 64.7625 375.516 63.9507C375.74 63.1248 375.887 62.201 375.957 61.1792C376.027 60.1574 376.062 58.8206 376.062 57.1689C376.062 53.8376 375.838 51.549 375.39 50.3032C374.956 49.0435 374.151 48.4136 372.975 48.4136H372.324V66.2393ZM385.615 73V41.6528H399.892V48.4136H393.236V53.8726H399.304V60.1504H393.236V66.2393H399.892V73H385.615ZM401.866 73V41.6528H409.487V65.9873H415.072V73H401.866ZM416.773 73V41.6528H424.814V73H416.773ZM430.567 73L425.99 41.6528H433.171L434.893 59.3735L435.459 65.8613H435.753L436.236 59.4155L438.042 41.6528H445.223L440.625 73H430.567ZM446.419 73V41.6528H460.697V48.4136H454.041V53.8726H460.109V60.1504H454.041V66.2393H460.697V73H446.419ZM462.67 73V41.6528H471.321C472.875 41.6528 474.232 41.8068 475.394 42.1147C476.556 42.4087 477.585 42.8986 478.48 43.5845C479.39 44.2563 480.076 45.1942 480.538 46.3979C481.014 47.6017 481.252 49.0575 481.252 50.7651C481.252 52.7668 480.93 54.3975 480.286 55.6572C479.642 56.917 478.76 57.7498 477.641 58.1558V58.4707C479.74 58.8346 480.79 60.9412 480.79 64.7905V69.8086C480.79 70.8864 480.888 71.9502 481.084 73H473.294C473.07 72.2301 472.958 71.3273 472.958 70.2915V65.6514C472.958 65.1615 472.944 64.7695 472.917 64.4756C472.903 64.1676 472.847 63.8247 472.749 63.4468C472.665 63.0688 472.511 62.7889 472.287 62.6069C472.077 62.425 471.797 62.334 471.447 62.334H470.376V73H462.67ZM470.376 56.3081H470.943C471.937 56.3081 472.609 55.9932 472.958 55.3633C473.322 54.7334 473.504 53.7326 473.504 52.3608C473.504 50.9191 473.301 49.9043 472.896 49.3164C472.504 48.7145 471.839 48.4136 470.901 48.4136H470.376V56.3081ZM486.648 73V61.2632L480.412 41.6528H488.853L490.532 53.4316H490.784L492.632 41.6528H501.009L494.773 61.2632V73H486.648ZM506.887 73C506.486 73 506.285 72.8567 506.285 72.57C506.285 72.2547 506.572 72.054 507.145 71.968L508.005 71.839C508.636 71.753 509.066 71.6097 509.295 71.409C509.553 71.1797 509.739 70.764 509.854 70.162L515.702 44.878C515.845 44.276 515.845 43.8747 515.702 43.674C515.559 43.4733 515.2 43.3157 514.627 43.201L513.767 43.029C513.394 42.943 513.208 42.7853 513.208 42.556C513.208 42.212 513.466 42.04 513.982 42.04H527.828C528.545 42.04 528.831 42.3697 528.688 43.029L527.398 50.167C527.312 50.6543 527.083 50.898 526.71 50.898C526.309 50.898 526.137 50.7117 526.194 50.339L526.28 48.834C526.423 46.856 526.108 45.4083 525.334 44.491C524.56 43.5737 523.571 43.115 522.367 43.115C521.134 43.115 520.231 43.3157 519.658 43.717C519.085 44.1183 518.698 44.7347 518.497 45.566L516.175 55.714C516.089 56.1153 516.247 56.316 516.648 56.316H518.239C519.472 56.316 520.389 55.6423 520.991 54.295L521.98 52.188C522.066 52.016 522.152 51.887 522.238 51.801C522.324 51.6863 522.453 51.629 522.625 51.629C522.768 51.629 522.897 51.7007 523.012 51.844C523.127 51.9587 523.155 52.1307 523.098 52.36L520.862 61.949C520.719 62.4363 520.489 62.68 520.174 62.68C519.83 62.68 519.658 62.4937 519.658 62.121V60.057C519.658 59.0537 519.529 58.3943 519.271 58.079C519.013 57.7637 518.554 57.606 517.895 57.606H516.347C515.917 57.606 515.659 57.8067 515.573 58.208L512.821 69.947C512.678 70.549 512.678 70.979 512.821 71.237C512.964 71.4663 513.323 71.624 513.896 71.71L516.175 72.011C516.519 72.0397 516.691 72.1973 516.691 72.484C516.691 72.828 516.447 73 515.96 73H506.887ZM530.076 73.387C528.299 73.387 526.894 72.656 525.862 71.194C524.83 69.7033 524.314 67.6967 524.314 65.174C524.314 63.3107 524.615 61.519 525.217 59.799C525.819 58.079 526.607 56.5453 527.582 55.198C528.585 53.8507 529.689 52.79 530.893 52.016C532.126 51.2133 533.358 50.812 534.591 50.812C536.368 50.812 537.773 51.543 538.805 53.005C539.837 54.467 540.353 56.4737 540.353 59.025C540.353 60.8883 540.052 62.68 539.45 64.4C538.848 66.12 538.045 67.6537 537.042 69.001C536.067 70.3483 534.964 71.4233 533.731 72.226C532.527 73 531.309 73.387 530.076 73.387ZM529.99 72.355C530.907 72.355 531.796 71.9107 532.656 71.022C533.545 70.1333 534.347 68.958 535.064 67.496C535.781 66.034 536.354 64.4143 536.784 62.637C537.214 60.831 537.429 59.025 537.429 57.219C537.429 53.6357 536.497 51.844 534.634 51.844C533.745 51.844 532.857 52.2883 531.968 53.177C531.079 54.037 530.277 55.198 529.56 56.66C528.872 58.122 528.313 59.756 527.883 61.562C527.453 63.3393 527.238 65.131 527.238 66.937C527.238 70.549 528.155 72.355 529.99 72.355ZM544.011 73C543.609 73 543.452 72.8137 543.538 72.441L547.623 55.284C547.766 54.6533 547.78 54.166 547.666 53.822C547.58 53.4493 547.322 53.263 546.892 53.263C546.376 53.263 545.802 53.65 545.172 54.424C544.57 55.1693 543.882 56.6027 543.108 58.724C542.993 59.0967 542.792 59.283 542.506 59.283C542.076 59.283 541.961 59.025 542.162 58.509C542.792 56.531 543.452 54.983 544.14 53.865C544.856 52.747 545.573 51.9587 546.29 51.5C547.006 51.0413 547.666 50.812 548.268 50.812C549.214 50.812 549.887 51.1703 550.289 51.887C550.69 52.575 550.704 53.7217 550.332 55.327L549.859 57.348C549.83 57.5487 549.873 57.6633 549.988 57.692C550.102 57.7207 550.203 57.649 550.289 57.477C551.378 54.983 552.367 53.2487 553.256 52.274C554.144 51.2993 555.162 50.812 556.309 50.812C557.083 50.812 557.656 51.027 558.029 51.457C558.43 51.8583 558.631 52.4173 558.631 53.134C558.631 53.8507 558.459 54.424 558.115 54.854C557.771 55.284 557.326 55.499 556.782 55.499C556.323 55.499 555.993 55.3843 555.793 55.155C555.592 54.9257 555.434 54.6677 555.32 54.381C555.234 54.0657 555.133 53.7933 555.019 53.564C554.904 53.3347 554.718 53.22 554.46 53.22C554.03 53.22 553.471 53.7647 552.783 54.854C552.095 55.9433 551.349 57.4197 550.547 59.283C549.773 61.1177 549.013 63.1817 548.268 65.475C547.551 67.7683 546.92 70.119 546.376 72.527C546.29 72.8423 546.089 73 545.774 73H544.011ZM561.73 73C561.386 73 561.214 72.8567 561.214 72.57C561.214 72.312 561.444 72.1257 561.902 72.011L562.59 71.882C563.164 71.7673 563.665 71.495 564.095 71.065C564.497 70.6063 564.884 69.9757 565.256 69.173L578.113 42.298C578.257 42.0113 578.4 41.825 578.543 41.739C578.687 41.653 578.816 41.61 578.93 41.61C579.074 41.61 579.188 41.653 579.274 41.739C579.389 41.825 579.446 42.0113 579.446 42.298L579.919 69.56C579.948 70.3627 580.048 70.9217 580.22 71.237C580.392 71.5237 580.751 71.7387 581.295 71.882L581.854 72.011C582.198 72.097 582.37 72.269 582.37 72.527C582.37 72.8423 582.127 73 581.639 73H574.544C574.172 73 573.985 72.8567 573.985 72.57C573.985 72.2547 574.272 72.0683 574.845 72.011L575.705 71.925C576.193 71.8677 576.522 71.71 576.694 71.452C576.895 71.194 576.995 70.7497 576.995 70.119L576.909 63.454C576.909 62.7087 576.522 62.336 575.748 62.336H571.147C570.402 62.336 569.843 62.7087 569.47 63.454L566.675 69.216C565.901 70.85 566.159 71.753 567.449 71.925L568.051 72.011C568.481 72.0683 568.696 72.2403 568.696 72.527C568.696 72.8423 568.453 73 567.965 73H561.73ZM571.319 61.046H576.135C576.623 61.046 576.866 60.8023 576.866 60.315L576.78 48.576H576.565L570.932 60.315C570.818 60.5157 570.803 60.6877 570.889 60.831C570.975 60.9743 571.119 61.046 571.319 61.046ZM585.572 72.441L589.657 55.284C589.8 54.6533 589.815 54.166 589.7 53.822C589.614 53.4493 589.356 53.263 588.926 53.263C588.41 53.263 587.837 53.65 587.206 54.424C586.604 55.1693 585.916 56.6027 585.142 58.724C585.027 59.0967 584.827 59.283 584.54 59.283C584.11 59.283 583.995 59.025 584.196 58.509C584.827 56.531 585.486 54.983 586.174 53.865C586.891 52.747 587.607 51.9587 588.324 51.5C589.041 51.0413 589.7 50.812 590.302 50.812C591.248 50.812 591.922 51.1703 592.323 51.887C592.724 52.575 592.739 53.7217 592.366 55.327L591.291 59.971C591.262 60.1717 591.305 60.2863 591.42 60.315C591.535 60.3437 591.635 60.272 591.721 60.1C592.839 57.778 593.914 55.9433 594.946 54.596C595.978 53.22 596.953 52.2453 597.87 51.672C598.787 51.0987 599.619 50.812 600.364 50.812C601.425 50.812 602.199 51.242 602.686 52.102C603.173 52.962 603.173 54.2807 602.686 56.058L599.418 68.528C599.217 69.3307 599.203 69.9327 599.375 70.334C599.547 70.7353 599.862 70.936 600.321 70.936C600.894 70.936 601.453 70.5633 601.998 69.818C602.571 69.044 603.159 67.5963 603.761 65.475C603.847 65.1597 604.033 65.002 604.32 65.002C604.549 65.002 604.678 65.088 604.707 65.26C604.764 65.432 604.764 65.6327 604.707 65.862C604.162 67.8113 603.575 69.345 602.944 70.463C602.313 71.5523 601.668 72.312 601.009 72.742C600.378 73.172 599.733 73.387 599.074 73.387C598.042 73.387 597.268 72.957 596.752 72.097C596.236 71.237 596.207 69.904 596.666 68.098L599.977 55.628C600.292 54.51 600.335 53.736 600.106 53.306C599.905 52.876 599.604 52.661 599.203 52.661C598.572 52.661 597.856 53.0623 597.053 53.865C596.25 54.639 595.433 55.714 594.602 57.09C593.771 58.4373 592.954 59.971 592.151 61.691C591.348 63.411 590.617 65.2027 589.958 67.066C589.327 68.9293 588.811 70.7497 588.41 72.527C588.324 72.8423 588.123 73 587.808 73H586.045C585.644 73 585.486 72.8137 585.572 72.441ZM604.556 82.245C603.466 82.245 602.621 81.9583 602.019 81.385C601.417 80.8403 601.116 80.1667 601.116 79.364C601.116 78.762 601.273 78.3033 601.589 77.988C601.904 77.7013 602.248 77.558 602.621 77.558C603.165 77.558 603.552 77.7013 603.782 77.988C604.011 78.2747 604.183 78.6043 604.298 78.977C604.412 79.3783 604.599 79.7223 604.857 80.009C605.086 80.2957 605.473 80.439 606.018 80.439C607.078 80.439 608.125 80.009 609.157 79.149C610.189 78.3177 611.034 77.1567 611.694 75.666C612.353 74.204 612.64 72.5557 612.554 70.721L611.909 55.284C611.88 54.5387 611.751 54.0227 611.522 53.736C611.292 53.4207 611.006 53.263 610.662 53.263C610.031 53.263 609.429 53.65 608.856 54.424C608.282 55.1693 607.809 56.6027 607.437 58.724C607.351 59.0967 607.164 59.283 606.878 59.283C606.476 59.283 606.319 59.025 606.405 58.509C606.749 56.531 607.222 54.983 607.824 53.865C608.454 52.747 609.114 51.9587 609.802 51.5C610.518 51.0413 611.178 50.812 611.78 50.812C612.668 50.812 613.371 51.1273 613.887 51.758C614.403 52.36 614.689 53.4063 614.747 54.897L615.349 71.409C615.349 71.6097 615.406 71.7387 615.521 71.796C615.664 71.8247 615.793 71.753 615.908 71.581C616.911 70.1763 617.814 68.7287 618.617 67.238C619.448 65.7187 620.107 64.228 620.595 62.766C621.082 61.304 621.326 59.9567 621.326 58.724C621.326 57.52 621.197 56.574 620.939 55.886C620.681 55.1693 620.408 54.5673 620.122 54.08C619.864 53.5927 619.735 53.0623 619.735 52.489C619.735 51.371 620.222 50.812 621.197 50.812C622.573 50.812 623.261 52.3313 623.261 55.37C623.261 57.0327 622.974 58.853 622.401 60.831C621.827 62.7803 621.039 64.7727 620.036 66.808C619.061 68.8147 617.929 70.7353 616.639 72.57C615.377 74.4047 614.044 76.053 612.64 77.515C611.264 78.977 609.873 80.1237 608.469 80.955C607.093 81.815 605.788 82.245 604.556 82.245ZM630.05 73C629.649 73 629.448 72.8567 629.448 72.57C629.448 72.2547 629.735 72.054 630.308 71.968L631.168 71.839C631.799 71.753 632.229 71.6097 632.458 71.409C632.716 71.1797 632.902 70.764 633.017 70.162L638.865 44.878C639.008 44.276 639.008 43.8747 638.865 43.674C638.722 43.4733 638.363 43.3157 637.79 43.201L636.93 43.029C636.557 42.943 636.371 42.7853 636.371 42.556C636.371 42.212 636.629 42.04 637.145 42.04H651.507C652.252 42.04 652.553 42.3697 652.41 43.029L651.077 50.167C650.991 50.6543 650.762 50.898 650.389 50.898C649.988 50.898 649.816 50.7117 649.873 50.339L650.002 48.834C650.145 47.372 650.016 46.2253 649.615 45.394C649.242 44.5627 648.669 43.975 647.895 43.631C647.15 43.287 646.275 43.115 645.272 43.115C644.125 43.115 643.294 43.287 642.778 43.631C642.262 43.9463 641.904 44.5197 641.703 45.351L639.338 55.714C639.252 56.1153 639.41 56.316 639.811 56.316H642.004C643.265 56.316 644.183 55.6423 644.756 54.295L645.702 52.145C645.845 51.7723 646.075 51.586 646.39 51.586C646.562 51.586 646.691 51.6577 646.777 51.801C646.892 51.9157 646.92 52.0877 646.863 52.317L644.627 61.992C644.484 62.4793 644.24 62.723 643.896 62.723C643.552 62.723 643.38 62.5367 643.38 62.164L643.423 60.057C643.452 59.0537 643.323 58.3943 643.036 58.079C642.778 57.7637 642.319 57.606 641.66 57.606H639.51C639.08 57.606 638.822 57.8067 638.736 58.208L636.242 69.001C636.013 70.033 636.113 70.7783 636.543 71.237C636.973 71.6957 637.89 71.925 639.295 71.925C640.155 71.925 641.001 71.796 641.832 71.538C642.692 71.2513 643.495 70.721 644.24 69.947C645.014 69.173 645.716 68.055 646.347 66.593L647.379 64.185C647.522 63.8123 647.752 63.626 648.067 63.626C648.497 63.626 648.64 63.8697 648.497 64.357L646.304 72.011C646.132 72.6703 645.702 73 645.014 73H630.05ZM655.966 73.387C654.561 73.387 653.515 72.8567 652.827 71.796C652.139 70.7353 652.01 69.3737 652.44 67.711L655.751 55.284C656.123 53.9367 655.894 53.263 655.063 53.263C654.461 53.263 653.859 53.693 653.257 54.553C652.683 55.413 652.053 56.8177 651.365 58.767C651.25 59.111 651.049 59.283 650.763 59.283C650.619 59.283 650.505 59.2257 650.419 59.111C650.333 58.9677 650.318 58.7957 650.376 58.595C652.038 53.4063 654.117 50.812 656.611 50.812C657.585 50.812 658.245 51.2133 658.589 52.016C658.933 52.8187 658.918 53.9223 658.546 55.327L655.149 68.141C654.833 69.345 654.805 70.2767 655.063 70.936C655.349 71.5667 655.851 71.882 656.568 71.882C657.399 71.882 658.273 71.4807 659.191 70.678C660.137 69.8753 661.025 68.829 661.857 67.539C662.688 66.249 663.362 64.83 663.878 63.282C664.394 61.734 664.652 60.2147 664.652 58.724C664.652 57.52 664.523 56.574 664.265 55.886C664.007 55.1693 663.734 54.5673 663.448 54.08C663.19 53.5927 663.061 53.0623 663.061 52.489C663.061 51.371 663.548 50.812 664.523 50.812C665.899 50.812 666.587 52.3313 666.587 55.37C666.587 57.5487 666.271 59.713 665.641 61.863C665.01 63.9843 664.179 65.9193 663.147 67.668C662.115 69.388 660.968 70.7783 659.707 71.839C658.474 72.871 657.227 73.387 655.966 73.387ZM672.74 73.387C671.221 73.387 670.003 72.7993 669.085 71.624C668.168 70.42 667.709 68.7287 667.709 66.55C667.709 64.658 668.039 62.7803 668.698 60.917C669.386 59.0537 670.275 57.3623 671.364 55.843C672.454 54.3237 673.643 53.1053 674.933 52.188C676.252 51.2707 677.528 50.812 678.76 50.812C680.108 50.812 681.068 51.1417 681.641 51.801C682.243 52.4317 682.544 53.2917 682.544 54.381C682.544 55.671 682.086 56.961 681.168 58.251C680.28 59.5123 679.018 60.6447 677.384 61.648C675.779 62.6513 673.887 63.3967 671.708 63.884C671.078 64.0273 670.748 64.3857 670.719 64.959C670.691 65.1597 670.676 65.3747 670.676 65.604C670.676 65.8047 670.676 66.0053 670.676 66.206C670.676 67.84 670.949 69.0727 671.493 69.904C672.067 70.7353 672.841 71.151 673.815 71.151C674.905 71.151 675.951 70.6493 676.954 69.646C677.986 68.6427 678.846 67.2237 679.534 65.389C679.62 65.131 679.792 65.002 680.05 65.002C680.222 65.002 680.323 65.0737 680.351 65.217C680.409 65.3603 680.409 65.5323 680.351 65.733C679.434 68.2557 678.316 70.162 676.997 71.452C675.707 72.742 674.288 73.387 672.74 73.387ZM671.149 62.25C671.092 62.4507 671.121 62.6227 671.235 62.766C671.379 62.8807 671.551 62.9093 671.751 62.852C673.529 62.3647 675.019 61.6337 676.223 60.659C677.427 59.6557 678.33 58.5377 678.932 57.305C679.563 56.0723 679.878 54.8683 679.878 53.693C679.878 52.489 679.405 51.887 678.459 51.887C677.628 51.887 676.725 52.3743 675.75 53.349C674.776 54.3237 673.873 55.5993 673.041 57.176C672.21 58.7527 671.579 60.444 671.149 62.25ZM684.422 72.441L688.507 55.284C688.65 54.6533 688.664 54.166 688.55 53.822C688.464 53.4493 688.206 53.263 687.776 53.263C687.26 53.263 686.686 53.65 686.056 54.424C685.454 55.1693 684.766 56.6027 683.992 58.724C683.877 59.0967 683.676 59.283 683.39 59.283C682.96 59.283 682.845 59.025 683.046 58.509C683.676 56.531 684.336 54.983 685.024 53.865C685.74 52.747 686.457 51.9587 687.174 51.5C687.89 51.0413 688.55 50.812 689.152 50.812C690.098 50.812 690.771 51.1703 691.173 51.887C691.574 52.575 691.588 53.7217 691.216 55.327L690.141 59.971C690.112 60.1717 690.155 60.2863 690.27 60.315C690.384 60.3437 690.485 60.272 690.571 60.1C691.689 57.778 692.764 55.9433 693.796 54.596C694.828 53.22 695.802 52.2453 696.72 51.672C697.637 51.0987 698.468 50.812 699.214 50.812C700.274 50.812 701.048 51.242 701.536 52.102C702.023 52.962 702.023 54.2807 701.536 56.058L698.268 68.528C698.067 69.3307 698.053 69.9327 698.225 70.334C698.397 70.7353 698.712 70.936 699.171 70.936C699.744 70.936 700.303 70.5633 700.848 69.818C701.421 69.044 702.009 67.5963 702.611 65.475C702.697 65.1597 702.883 65.002 703.17 65.002C703.399 65.002 703.528 65.088 703.557 65.26C703.614 65.432 703.614 65.6327 703.557 65.862C703.012 67.8113 702.424 69.345 701.794 70.463C701.163 71.5523 700.518 72.312 699.859 72.742C699.228 73.172 698.583 73.387 697.924 73.387C696.892 73.387 696.118 72.957 695.602 72.097C695.086 71.237 695.057 69.904 695.516 68.098L698.827 55.628C699.142 54.51 699.185 53.736 698.956 53.306C698.755 52.876 698.454 52.661 698.053 52.661C697.422 52.661 696.705 53.0623 695.903 53.865C695.1 54.639 694.283 55.714 693.452 57.09C692.62 58.4373 691.803 59.971 691.001 61.691C690.198 63.411 689.467 65.2027 688.808 67.066C688.177 68.9293 687.661 70.7497 687.26 72.527C687.174 72.8423 686.973 73 686.658 73H684.895C684.493 73 684.336 72.8137 684.422 72.441ZM708.952 73.387C707.978 73.387 707.218 73 706.673 72.226C706.129 71.452 706.043 70.205 706.415 68.485L709.984 52.919C710.07 52.489 709.898 52.274 709.468 52.274H707.834C707.433 52.274 707.232 52.0877 707.232 51.715C707.232 51.5143 707.304 51.3567 707.447 51.242C707.591 51.1273 707.763 51.07 707.963 51.07H709.511C710.171 51.07 710.558 50.769 710.672 50.167L711.704 45.566C711.79 45.2507 711.991 45.093 712.306 45.093H714.069C714.471 45.093 714.628 45.2793 714.542 45.652L713.467 50.425C713.381 50.855 713.553 51.07 713.983 51.07H716.434C716.922 51.07 717.165 51.2563 717.165 51.629C717.165 52.059 716.864 52.274 716.262 52.274H713.94C713.31 52.274 712.923 52.575 712.779 53.177L709.167 68.915C709.024 69.5457 709.038 70.0473 709.21 70.42C709.411 70.764 709.741 70.936 710.199 70.936C710.859 70.936 711.461 70.5633 712.005 69.818C712.579 69.0727 713.181 67.6537 713.811 65.561C713.926 65.1883 714.112 65.002 714.37 65.002C714.571 65.002 714.7 65.088 714.757 65.26C714.815 65.432 714.772 65.7473 714.628 66.206C714.084 68.1553 713.482 69.646 712.822 70.678C712.192 71.71 711.547 72.4267 710.887 72.828C710.228 73.2007 709.583 73.387 708.952 73.387ZM722.643 73C722.242 73 722.041 72.8567 722.041 72.57C722.041 72.2547 722.328 72.054 722.901 71.968L723.761 71.839C724.392 71.753 724.822 71.6097 725.051 71.409C725.309 71.1797 725.495 70.764 725.61 70.162L731.458 44.878C731.601 44.276 731.601 43.8747 731.458 43.674C731.315 43.4733 730.956 43.3157 730.383 43.201L729.523 43.029C729.15 42.943 728.964 42.7853 728.964 42.556C728.964 42.212 729.222 42.04 729.738 42.04H737.392C737.793 42.04 737.994 42.1833 737.994 42.47C737.994 42.7853 737.707 42.986 737.134 43.072L736.274 43.201C735.643 43.287 735.213 43.4447 734.984 43.674C734.755 43.8747 734.568 44.276 734.425 44.878L728.577 70.162C728.462 70.764 728.462 71.1653 728.577 71.366C728.72 71.5667 729.079 71.7243 729.652 71.839L730.512 72.011C730.885 72.097 731.071 72.2547 731.071 72.484C731.071 72.828 730.813 73 730.297 73H722.643ZM736.618 72.441L740.703 55.284C740.846 54.6533 740.861 54.166 740.746 53.822C740.66 53.4493 740.402 53.263 739.972 53.263C739.456 53.263 738.883 53.65 738.252 54.424C737.65 55.1693 736.962 56.6027 736.188 58.724C736.073 59.0967 735.873 59.283 735.586 59.283C735.156 59.283 735.041 59.025 735.242 58.509C735.873 56.531 736.532 54.983 737.22 53.865C737.937 52.747 738.653 51.9587 739.37 51.5C740.087 51.0413 740.746 50.812 741.348 50.812C742.294 50.812 742.968 51.1703 743.369 51.887C743.77 52.575 743.785 53.7217 743.412 55.327L742.337 59.971C742.308 60.1717 742.351 60.2863 742.466 60.315C742.581 60.3437 742.681 60.272 742.767 60.1C743.885 57.778 744.96 55.9433 745.992 54.596C747.024 53.22 747.999 52.2453 748.916 51.672C749.833 51.0987 750.665 50.812 751.41 50.812C752.471 50.812 753.245 51.242 753.732 52.102C754.219 52.962 754.219 54.2807 753.732 56.058L750.464 68.528C750.263 69.3307 750.249 69.9327 750.421 70.334C750.593 70.7353 750.908 70.936 751.367 70.936C751.94 70.936 752.499 70.5633 753.044 69.818C753.617 69.044 754.205 67.5963 754.807 65.475C754.893 65.1597 755.079 65.002 755.366 65.002C755.595 65.002 755.724 65.088 755.753 65.26C755.81 65.432 755.81 65.6327 755.753 65.862C755.208 67.8113 754.621 69.345 753.99 70.463C753.359 71.5523 752.714 72.312 752.055 72.742C751.424 73.172 750.779 73.387 750.12 73.387C749.088 73.387 748.314 72.957 747.798 72.097C747.282 71.237 747.253 69.904 747.712 68.098L751.023 55.628C751.338 54.51 751.381 53.736 751.152 53.306C750.951 52.876 750.65 52.661 750.249 52.661C749.618 52.661 748.902 53.0623 748.099 53.865C747.296 54.639 746.479 55.714 745.648 57.09C744.817 58.4373 744 59.971 743.197 61.691C742.394 63.411 741.663 65.2027 741.004 67.066C740.373 68.9293 739.857 70.7497 739.456 72.527C739.37 72.8423 739.169 73 738.854 73H737.091C736.69 73 736.532 72.8137 736.618 72.441ZM774.217 73.387C771.752 73.387 769.817 72.4267 768.412 70.506C767.008 68.5567 766.305 65.7617 766.305 62.121C766.305 60.6017 766.492 58.9247 766.864 57.09C767.266 55.2553 767.853 53.435 768.627 51.629C769.43 49.7943 770.419 48.1317 771.594 46.641C772.77 45.1217 774.16 43.9033 775.765 42.986C777.371 42.0687 779.177 41.61 781.183 41.61C782.445 41.61 783.52 41.7247 784.408 41.954C785.297 42.1547 786.042 42.427 786.644 42.771C786.902 42.9143 786.988 43.2153 786.902 43.674L785.612 50.21C785.526 50.6973 785.297 50.941 784.924 50.941C784.58 50.941 784.408 50.7547 784.408 50.382L784.365 49.135C784.279 46.6697 783.964 44.9927 783.419 44.104C782.903 43.1867 782.086 42.728 780.968 42.728C779.65 42.728 778.446 43.0863 777.356 43.803C776.296 44.5197 775.321 45.48 774.432 46.684C773.572 47.888 772.813 49.221 772.153 50.683C771.523 52.145 770.992 53.6357 770.562 55.155C770.161 56.6743 769.846 58.1077 769.616 59.455C769.416 60.8023 769.315 61.949 769.315 62.895C769.315 66.0197 769.774 68.3703 770.691 69.947C771.637 71.495 772.856 72.269 774.346 72.269C775.264 72.269 776.081 72.011 776.797 71.495C777.514 70.9503 778.03 69.9757 778.345 68.571L780.495 59.154C780.639 58.5807 780.653 58.1793 780.538 57.95C780.452 57.692 780.08 57.5343 779.42 57.477L777.915 57.305C777.543 57.2763 777.356 57.1187 777.356 56.832C777.356 56.488 777.614 56.316 778.13 56.316H785.913C786.286 56.316 786.472 56.4593 786.472 56.746C786.472 57.0613 786.257 57.2477 785.827 57.305L785.182 57.391C784.552 57.477 784.136 57.649 783.935 57.907C783.763 58.165 783.606 58.595 783.462 59.197L780.968 69.99C780.911 70.3053 780.753 70.6063 780.495 70.893C780.266 71.1797 779.893 71.4807 779.377 71.796C778.661 72.226 777.887 72.5987 777.055 72.914C776.224 73.2293 775.278 73.387 774.217 73.387ZM791.704 73.387C790.185 73.387 788.967 72.7993 788.049 71.624C787.132 70.42 786.673 68.7287 786.673 66.55C786.673 64.658 787.003 62.7803 787.662 60.917C788.35 59.0537 789.239 57.3623 790.328 55.843C791.418 54.3237 792.607 53.1053 793.897 52.188C795.216 51.2707 796.492 50.812 797.724 50.812C799.072 50.812 800.032 51.1417 800.605 51.801C801.207 52.4317 801.508 53.2917 801.508 54.381C801.508 55.671 801.05 56.961 800.132 58.251C799.244 59.5123 797.982 60.6447 796.348 61.648C794.743 62.6513 792.851 63.3967 790.672 63.884C790.042 64.0273 789.712 64.3857 789.683 64.959C789.655 65.1597 789.64 65.3747 789.64 65.604C789.64 65.8047 789.64 66.0053 789.64 66.206C789.64 67.84 789.913 69.0727 790.457 69.904C791.031 70.7353 791.805 71.151 792.779 71.151C793.869 71.151 794.915 70.6493 795.918 69.646C796.95 68.6427 797.81 67.2237 798.498 65.389C798.584 65.131 798.756 65.002 799.014 65.002C799.186 65.002 799.287 65.0737 799.315 65.217C799.373 65.3603 799.373 65.5323 799.315 65.733C798.398 68.2557 797.28 70.162 795.961 71.452C794.671 72.742 793.252 73.387 791.704 73.387ZM790.113 62.25C790.056 62.4507 790.085 62.6227 790.199 62.766C790.343 62.8807 790.515 62.9093 790.715 62.852C792.493 62.3647 793.983 61.6337 795.187 60.659C796.391 59.6557 797.294 58.5377 797.896 57.305C798.527 56.0723 798.842 54.8683 798.842 53.693C798.842 52.489 798.369 51.887 797.423 51.887C796.592 51.887 795.689 52.3743 794.714 53.349C793.74 54.3237 792.837 55.5993 792.005 57.176C791.174 58.7527 790.543 60.444 790.113 62.25ZM803.858 73C803.457 73 803.299 72.8137 803.385 72.441L807.47 55.284C807.614 54.6533 807.628 54.166 807.513 53.822C807.427 53.4493 807.169 53.263 806.739 53.263C806.223 53.263 805.65 53.65 805.019 54.424C804.417 55.1693 803.729 56.6027 802.955 58.724C802.841 59.0967 802.64 59.283 802.353 59.283C801.923 59.283 801.809 59.025 802.009 58.509C802.64 56.531 803.299 54.983 803.987 53.865C804.704 52.747 805.421 51.9587 806.137 51.5C806.854 51.0413 807.513 50.812 808.115 50.812C809.061 50.812 809.735 51.1703 810.136 51.887C810.538 52.575 810.552 53.7217 810.179 55.327L809.706 57.348C809.678 57.5487 809.721 57.6633 809.835 57.692C809.95 57.7207 810.05 57.649 810.136 57.477C811.226 54.983 812.215 53.2487 813.103 52.274C813.992 51.2993 815.01 50.812 816.156 50.812C816.93 50.812 817.504 51.027 817.876 51.457C818.278 51.8583 818.478 52.4173 818.478 53.134C818.478 53.8507 818.306 54.424 817.962 54.854C817.618 55.284 817.174 55.499 816.629 55.499C816.171 55.499 815.841 55.3843 815.64 55.155C815.44 54.9257 815.282 54.6677 815.167 54.381C815.081 54.0657 814.981 53.7933 814.866 53.564C814.752 53.3347 814.565 53.22 814.307 53.22C813.877 53.22 813.318 53.7647 812.63 54.854C811.942 55.9433 811.197 57.4197 810.394 59.283C809.62 61.1177 808.861 63.1817 808.115 65.475C807.399 67.7683 806.768 70.119 806.223 72.527C806.137 72.8423 805.937 73 805.621 73H803.858ZM842.351 73.387C841.319 73.387 840.545 72.957 840.029 72.097C839.513 71.237 839.484 69.904 839.943 68.098L843.254 55.628C843.569 54.51 843.612 53.736 843.383 53.306C843.182 52.876 842.881 52.661 842.48 52.661C841.906 52.661 841.247 53.0623 840.502 53.865C839.756 54.639 838.968 55.6997 838.137 57.047C837.334 58.3943 836.546 59.928 835.772 61.648C834.998 63.368 834.281 65.1597 833.622 67.023C832.962 68.8863 832.418 70.721 831.988 72.527C831.902 72.8423 831.701 73 831.386 73H829.709C829.307 73 829.15 72.8137 829.236 72.441L833.192 55.628C833.45 54.51 833.478 53.736 833.278 53.306C833.106 52.876 832.819 52.661 832.418 52.661C831.873 52.661 831.228 53.0623 830.483 53.865C829.737 54.639 828.963 55.6997 828.161 57.047C827.358 58.3943 826.57 59.928 825.796 61.648C825.022 63.368 824.305 65.1597 823.646 67.023C822.986 68.8863 822.456 70.721 822.055 72.527C821.969 72.8423 821.768 73 821.453 73H819.69C819.288 73 819.131 72.8137 819.217 72.441L823.302 55.284C823.445 54.6533 823.459 54.166 823.345 53.822C823.259 53.4493 823.001 53.263 822.571 53.263C822.055 53.263 821.481 53.65 820.851 54.424C820.249 55.1693 819.561 56.6027 818.787 58.724C818.672 59.0967 818.471 59.283 818.185 59.283C817.755 59.283 817.64 59.025 817.841 58.509C818.471 56.531 819.131 54.983 819.819 53.865C820.535 52.747 821.252 51.9587 821.969 51.5C822.685 51.0413 823.345 50.812 823.947 50.812C824.893 50.812 825.566 51.1703 825.968 51.887C826.369 52.575 826.383 53.7217 826.011 55.327L824.936 59.971C824.907 60.1717 824.95 60.2863 825.065 60.315C825.179 60.3437 825.28 60.272 825.366 60.1C827.028 56.66 828.533 54.252 829.881 52.876C831.228 51.5 832.461 50.812 833.579 50.812C834.639 50.812 835.385 51.242 835.815 52.102C836.273 52.962 836.302 54.2807 835.901 56.058L834.998 59.971C834.969 60.1717 835.012 60.2863 835.127 60.315C835.241 60.3437 835.342 60.272 835.428 60.1C836.517 57.778 837.535 55.9433 838.481 54.596C839.455 53.22 840.373 52.2453 841.232 51.672C842.093 51.0987 842.895 50.812 843.641 50.812C844.701 50.812 845.475 51.242 845.963 52.102C846.45 52.962 846.45 54.2807 845.963 56.058L842.695 68.528C842.494 69.3307 842.48 69.9327 842.652 70.334C842.824 70.7353 843.139 70.936 843.598 70.936C844.171 70.936 844.73 70.5633 845.275 69.818C845.848 69.044 846.436 67.5963 847.038 65.475C847.124 65.1597 847.31 65.002 847.597 65.002C847.826 65.002 847.955 65.088 847.984 65.26C848.041 65.432 848.041 65.6327 847.984 65.862C847.439 67.8113 846.851 69.345 846.221 70.463C845.59 71.5523 844.945 72.312 844.286 72.742C843.655 73.172 843.01 73.387 842.351 73.387ZM852.805 73.387C851.773 73.387 850.97 72.9427 850.397 72.054C849.823 71.1653 849.537 69.861 849.537 68.141C849.537 66.507 849.766 64.873 850.225 63.239C850.683 61.5763 851.314 59.9997 852.117 58.509C852.919 57.0183 853.822 55.6997 854.826 54.553C855.858 53.4063 856.933 52.5033 858.051 51.844C859.197 51.156 860.33 50.812 861.448 50.812C861.992 50.812 862.508 50.9267 862.996 51.156C863.483 51.3567 863.884 51.6863 864.2 52.145C864.372 52.403 864.544 52.532 864.716 52.532C864.888 52.532 865.06 52.403 865.232 52.145C865.547 51.6863 865.805 51.3997 866.006 51.285C866.206 51.1417 866.393 51.07 866.565 51.07C866.937 51.07 867.081 51.2707 866.995 51.672L863.168 68.141C862.738 70.0043 863.024 70.936 864.028 70.936C864.687 70.936 865.275 70.4917 865.791 69.603C866.335 68.7143 866.88 67.3383 867.425 65.475C867.511 65.1597 867.697 65.002 867.984 65.002C868.184 65.002 868.313 65.088 868.371 65.26C868.428 65.432 868.428 65.6327 868.371 65.862C867.826 68.5567 867.095 70.4917 866.178 71.667C865.26 72.8137 864.157 73.387 862.867 73.387C861.749 73.387 860.946 72.914 860.459 71.968C860 71.022 859.957 69.732 860.33 68.098L860.889 65.733C860.946 65.5323 860.903 65.4177 860.76 65.389C860.645 65.3603 860.545 65.432 860.459 65.604C858.882 68.4993 857.477 70.5203 856.245 71.667C855.041 72.8137 853.894 73.387 852.805 73.387ZM853.88 71.194C854.568 71.194 855.327 70.7783 856.159 69.947C856.99 69.1157 857.807 68.0407 858.61 66.722C859.441 65.4033 860.201 63.9843 860.889 62.465C861.577 60.9457 862.121 59.4837 862.523 58.079C862.953 56.6743 863.168 55.4847 863.168 54.51C863.168 52.7613 862.551 51.887 861.319 51.887C860.573 51.887 859.785 52.231 858.954 52.919C858.122 53.5783 857.32 54.4813 856.546 55.628C855.8 56.7747 855.112 58.079 854.482 59.541C853.88 60.9743 853.392 62.4793 853.02 64.056C852.647 65.604 852.461 67.1233 852.461 68.614C852.461 69.6173 852.575 70.3053 852.805 70.678C853.063 71.022 853.421 71.194 853.88 71.194ZM871.623 72.441L875.708 55.284C875.851 54.6533 875.865 54.166 875.751 53.822C875.665 53.4493 875.407 53.263 874.977 53.263C874.461 53.263 873.887 53.65 873.257 54.424C872.655 55.1693 871.967 56.6027 871.193 58.724C871.078 59.0967 870.877 59.283 870.591 59.283C870.161 59.283 870.046 59.025 870.247 58.509C870.877 56.531 871.537 54.983 872.225 53.865C872.941 52.747 873.658 51.9587 874.375 51.5C875.091 51.0413 875.751 50.812 876.353 50.812C877.299 50.812 877.972 51.1703 878.374 51.887C878.775 52.575 878.789 53.7217 878.417 55.327L877.342 59.971C877.313 60.1717 877.356 60.2863 877.471 60.315C877.585 60.3437 877.686 60.272 877.772 60.1C878.89 57.778 879.965 55.9433 880.997 54.596C882.029 53.22 883.003 52.2453 883.921 51.672C884.838 51.0987 885.669 50.812 886.415 50.812C887.475 50.812 888.249 51.242 888.737 52.102C889.224 52.962 889.224 54.2807 888.737 56.058L885.469 68.528C885.268 69.3307 885.254 69.9327 885.426 70.334C885.598 70.7353 885.913 70.936 886.372 70.936C886.945 70.936 887.504 70.5633 888.049 69.818C888.622 69.044 889.21 67.5963 889.812 65.475C889.898 65.1597 890.084 65.002 890.371 65.002C890.6 65.002 890.729 65.088 890.758 65.26C890.815 65.432 890.815 65.6327 890.758 65.862C890.213 67.8113 889.625 69.345 888.995 70.463C888.364 71.5523 887.719 72.312 887.06 72.742C886.429 73.172 885.784 73.387 885.125 73.387C884.093 73.387 883.319 72.957 882.803 72.097C882.287 71.237 882.258 69.904 882.717 68.098L886.028 55.628C886.343 54.51 886.386 53.736 886.157 53.306C885.956 52.876 885.655 52.661 885.254 52.661C884.623 52.661 883.906 53.0623 883.104 53.865C882.301 54.639 881.484 55.714 880.653 57.09C879.821 58.4373 879.004 59.971 878.202 61.691C877.399 63.411 876.668 65.2027 876.009 67.066C875.378 68.9293 874.862 70.7497 874.461 72.527C874.375 72.8423 874.174 73 873.859 73H872.096C871.694 73 871.537 72.8137 871.623 72.441ZM890.607 82.245C889.517 82.245 888.672 81.9583 888.07 81.385C887.468 80.8403 887.167 80.1667 887.167 79.364C887.167 78.762 887.324 78.3033 887.64 77.988C887.955 77.7013 888.299 77.558 888.672 77.558C889.216 77.558 889.603 77.7013 889.833 77.988C890.062 78.2747 890.234 78.6043 890.349 78.977C890.463 79.3783 890.65 79.7223 890.908 80.009C891.137 80.2957 891.524 80.439 892.069 80.439C893.129 80.439 894.176 80.009 895.208 79.149C896.24 78.3177 897.085 77.1567 897.745 75.666C898.404 74.204 898.691 72.5557 898.605 70.721L897.96 55.284C897.931 54.5387 897.802 54.0227 897.573 53.736C897.343 53.4207 897.057 53.263 896.713 53.263C896.082 53.263 895.48 53.65 894.907 54.424C894.333 55.1693 893.86 56.6027 893.488 58.724C893.402 59.0967 893.215 59.283 892.929 59.283C892.527 59.283 892.37 59.025 892.456 58.509C892.8 56.531 893.273 54.983 893.875 53.865C894.505 52.747 895.165 51.9587 895.853 51.5C896.569 51.0413 897.229 50.812 897.831 50.812C898.719 50.812 899.422 51.1273 899.938 51.758C900.454 52.36 900.74 53.4063 900.798 54.897L901.4 71.409C901.4 71.6097 901.457 71.7387 901.572 71.796C901.715 71.8247 901.844 71.753 901.959 71.581C902.962 70.1763 903.865 68.7287 904.668 67.238C905.499 65.7187 906.158 64.228 906.646 62.766C907.133 61.304 907.377 59.9567 907.377 58.724C907.377 57.52 907.248 56.574 906.99 55.886C906.732 55.1693 906.459 54.5673 906.173 54.08C905.915 53.5927 905.786 53.0623 905.786 52.489C905.786 51.371 906.273 50.812 907.248 50.812C908.624 50.812 909.312 52.3313 909.312 55.37C909.312 57.0327 909.025 58.853 908.452 60.831C907.878 62.7803 907.09 64.7727 906.087 66.808C905.112 68.8147 903.98 70.7353 902.69 72.57C901.428 74.4047 900.095 76.053 898.691 77.515C897.315 78.977 895.924 80.1237 894.52 80.955C893.144 81.815 891.839 82.245 890.607 82.245Z" fill="black"/>
<path d="M43.3477 306V228.504H31.3281V206.855H81V228.504H68.3828V306H43.3477ZM89.1706 307.328C86.2487 307.328 83.681 306.753 81.4675 305.602C79.254 304.451 77.4167 302.835 75.9558 300.754C74.5391 298.673 73.3881 296.017 72.5027 292.785C71.6172 289.553 70.9974 286.034 70.6433 282.227C70.2891 278.419 70.112 274.059 70.112 269.145C70.112 263.212 70.4219 258.033 71.0417 253.605C71.6615 249.134 72.5027 245.504 73.5652 242.715C74.6719 239.882 76.0443 237.579 77.6823 235.809C79.3204 234.038 81.0469 232.82 82.862 232.156C84.7214 231.448 86.8243 231.094 89.1706 231.094C96.1211 231.094 100.836 234.436 103.315 241.121H104.245L104.776 232.422H128.151V306H104.245V297.301H103.315C102.076 300.621 100.194 303.122 97.6706 304.805C95.1915 306.487 92.3581 307.328 89.1706 307.328ZM99.3308 288.602C101.146 288.602 102.408 287.207 103.116 284.418C103.869 281.629 104.245 277.224 104.245 271.203V267.219C104.245 260.667 103.846 256.085 103.05 253.473C102.253 250.861 101.013 249.555 99.3308 249.555C97.2943 249.555 95.9441 251.06 95.28 254.07C94.6159 257.081 94.2839 262.105 94.2839 269.145C94.2839 276.538 94.6602 281.629 95.4128 284.418C96.1654 287.207 97.4714 288.602 99.3308 288.602ZM133.001 225.516V206.855H157.107V225.516H133.001ZM133.001 306V232.422H157.107V306H133.001ZM162.024 306V206.855H186.129V306H162.024ZM218.538 307.328C214.022 307.328 210.038 306.642 206.585 305.27C203.176 303.897 200.166 301.728 197.554 298.762C194.986 295.796 193.038 291.811 191.71 286.809C190.382 281.806 189.718 275.829 189.718 268.879C189.718 262.15 190.36 256.35 191.643 251.48C192.927 246.611 194.809 242.693 197.288 239.727C199.811 236.76 202.822 234.591 206.319 233.219C209.817 231.802 213.89 231.094 218.538 231.094C228.012 231.094 235.228 234.082 240.186 240.059C245.145 245.991 247.624 255.598 247.624 268.879C247.624 282.47 245.123 292.276 240.12 298.297C235.117 304.318 227.923 307.328 218.538 307.328ZM218.538 288.602C220.53 288.602 221.858 287.229 222.522 284.484C223.231 281.695 223.585 276.582 223.585 269.145C223.585 263.965 223.43 260.003 223.12 257.258C222.81 254.513 222.301 252.565 221.593 251.414C220.884 250.263 219.866 249.688 218.538 249.688C216.634 249.688 215.35 251.038 214.686 253.738C214.067 256.439 213.757 261.574 213.757 269.145C213.757 276.582 214.067 281.695 214.686 284.484C215.35 287.229 216.634 288.602 218.538 288.602ZM251.013 306V232.422H272.927L273.724 243.18H274.72C275.694 239.417 276.978 236.694 278.572 235.012C280.21 233.285 282.866 232.289 286.541 232.023C286.629 232.023 286.806 232.001 287.072 231.957C287.337 231.913 287.559 231.891 287.736 231.891V255.266C286.718 255.354 284.991 255.398 282.556 255.398C279.679 255.398 277.709 256.173 276.646 257.723C275.584 259.228 275.074 262.438 275.119 267.352V306H251.013ZM316.957 307.328C312.442 307.328 308.457 306.642 305.004 305.27C301.595 303.897 298.585 301.728 295.973 298.762C293.405 295.796 291.457 291.811 290.129 286.809C288.801 281.806 288.137 275.829 288.137 268.879C288.137 262.15 288.779 256.35 290.063 251.48C291.347 246.611 293.228 242.693 295.707 239.727C298.231 236.76 301.241 234.591 304.739 233.219C308.236 231.802 312.309 231.094 316.957 231.094C327.317 231.094 334.644 234.658 338.938 241.785C343.276 248.913 345.114 259.671 344.45 274.059H312.176C312.176 279.902 312.552 284.02 313.305 286.41C314.058 288.757 315.275 289.93 316.957 289.93C318.418 289.93 319.525 289.243 320.278 287.871C321.075 286.499 321.562 284.152 321.739 280.832H344.45C343.653 290.262 340.908 297.035 336.215 301.152C331.522 305.27 325.103 307.328 316.957 307.328ZM316.957 248.625C315.408 248.625 314.257 249.533 313.504 251.348C312.752 253.118 312.309 256.24 312.176 260.711H321.739C321.606 256.417 321.141 253.34 320.344 251.48C319.591 249.577 318.463 248.625 316.957 248.625ZM365.835 307.328C363.444 307.328 361.319 306.974 359.46 306.266C357.645 305.602 355.918 304.384 354.28 302.613C352.642 300.842 351.292 298.54 350.23 295.707C349.167 292.874 348.326 289.221 347.706 284.75C347.086 280.279 346.776 275.077 346.776 269.145C346.776 264.23 346.953 259.892 347.308 256.129C347.662 252.366 348.282 248.868 349.167 245.637C350.052 242.405 351.203 239.749 352.62 237.668C354.081 235.587 355.918 233.971 358.132 232.82C360.345 231.669 362.913 231.094 365.835 231.094C369.2 231.094 372.077 231.957 374.468 233.684C376.903 235.41 378.74 237.889 379.98 241.121H380.909V206.855H404.815V306H381.44L380.909 297.301H379.98C377.545 303.986 372.83 307.328 365.835 307.328ZM375.995 288.602C377.146 288.602 378.054 288.092 378.718 287.074C379.426 286.056 379.957 284.263 380.312 281.695C380.71 279.128 380.909 275.63 380.909 271.203V267.219C380.909 261.154 380.533 256.704 379.78 253.871C379.072 250.993 377.81 249.555 375.995 249.555C374.136 249.555 372.83 250.993 372.077 253.871C371.325 256.704 370.948 261.796 370.948 269.145C370.948 276.184 371.258 281.186 371.878 284.152C372.542 287.118 373.914 288.602 375.995 288.602ZM431.25 306V251.48L424.676 251.879V232.422L431.25 232.688V227.773C431.25 220.867 432.977 215.665 436.43 212.168C439.883 208.626 445.55 206.855 453.43 206.855H463.989V223.723H460.204C459.053 223.723 458.101 223.878 457.348 224.188C456.64 224.497 456.153 225.007 455.887 225.715C455.622 226.379 455.444 226.977 455.356 227.508C455.312 227.995 455.29 228.725 455.29 229.699V232.688L463.059 232.422V251.879L455.29 251.48V306H431.25ZM492.015 307.328C487.499 307.328 483.515 306.642 480.062 305.27C476.653 303.897 473.642 301.728 471.03 298.762C468.463 295.796 466.515 291.811 465.187 286.809C463.859 281.806 463.195 275.829 463.195 268.879C463.195 262.15 463.836 256.35 465.12 251.48C466.404 246.611 468.286 242.693 470.765 239.727C473.288 236.76 476.299 234.591 479.796 233.219C483.293 231.802 487.366 231.094 492.015 231.094C501.489 231.094 508.705 234.082 513.663 240.059C518.622 245.991 521.101 255.598 521.101 268.879C521.101 282.47 518.599 292.276 513.597 298.297C508.594 304.318 501.4 307.328 492.015 307.328ZM492.015 288.602C494.007 288.602 495.335 287.229 495.999 284.484C496.708 281.695 497.062 276.582 497.062 269.145C497.062 263.965 496.907 260.003 496.597 257.258C496.287 254.513 495.778 252.565 495.07 251.414C494.361 250.263 493.343 249.688 492.015 249.688C490.111 249.688 488.827 251.038 488.163 253.738C487.543 256.439 487.234 261.574 487.234 269.145C487.234 276.582 487.543 281.695 488.163 284.484C488.827 287.229 490.111 288.602 492.015 288.602ZM524.49 306V232.422H546.404L547.201 243.18H548.197C549.171 239.417 550.455 236.694 552.049 235.012C553.687 233.285 556.343 232.289 560.017 232.023C560.106 232.023 560.283 232.001 560.549 231.957C560.814 231.913 561.036 231.891 561.213 231.891V255.266C560.195 255.354 558.468 255.398 556.033 255.398C553.156 255.398 551.185 256.173 550.123 257.723C549.06 259.228 548.551 262.438 548.596 267.352V306H524.49ZM61.1445 411.328C56.6289 411.328 52.6445 410.642 49.1914 409.27C45.7826 407.853 42.7943 405.661 40.2266 402.695C37.7031 399.729 35.7773 395.745 34.4492 390.742C33.1211 385.74 32.457 379.785 32.457 372.879C32.457 359.642 34.8919 350.035 39.7617 344.059C44.6315 338.082 51.7591 335.094 61.1445 335.094C69.7773 335.094 76.3516 337.418 80.8672 342.066C85.3828 346.715 88.0169 353.997 88.7695 363.914H66.0586C65.793 360.107 65.2839 357.451 64.5312 355.945C63.8229 354.44 62.694 353.688 61.1445 353.688C59.3294 353.688 58.0898 355.038 57.4258 357.738C56.806 360.395 56.4961 365.53 56.4961 373.145C56.4961 380.582 56.806 385.695 57.4258 388.484C58.0456 391.229 59.2852 392.602 61.1445 392.602C62.694 392.602 63.8229 391.783 64.5312 390.145C65.2839 388.507 65.793 385.872 66.0586 382.242H88.7695C88.3268 387.732 87.3086 392.424 85.7148 396.32C84.1654 400.216 82.1068 403.227 79.5391 405.352C77.0156 407.477 74.2487 409.004 71.2383 409.934C68.2721 410.863 64.9076 411.328 61.1445 411.328ZM119.385 411.328C114.87 411.328 110.885 410.642 107.432 409.27C104.023 407.897 101.013 405.728 98.4011 402.762C95.8334 399.796 93.8855 395.811 92.5573 390.809C91.2292 385.806 90.5652 379.829 90.5652 372.879C90.5652 366.15 91.2071 360.35 92.4909 355.48C93.7748 350.611 95.6563 346.693 98.1355 343.727C100.659 340.76 103.669 338.591 107.167 337.219C110.664 335.802 114.737 335.094 119.385 335.094C128.859 335.094 136.076 338.082 141.034 344.059C145.992 349.991 148.471 359.598 148.471 372.879C148.471 386.47 145.97 396.276 140.967 402.297C135.965 408.318 128.771 411.328 119.385 411.328ZM119.385 392.602C121.378 392.602 122.706 391.229 123.37 388.484C124.078 385.695 124.432 380.582 124.432 373.145C124.432 367.965 124.277 364.003 123.967 361.258C123.658 358.513 123.148 356.565 122.44 355.414C121.732 354.263 120.714 353.688 119.385 353.688C117.482 353.688 116.198 355.038 115.534 357.738C114.914 360.439 114.604 365.574 114.604 373.145C114.604 380.582 114.914 385.695 115.534 388.484C116.198 391.229 117.482 392.602 119.385 392.602ZM151.861 410V336.422H173.775L174.572 347.18H175.568C176.542 343.417 177.826 340.694 179.419 339.012C181.057 337.285 183.714 336.289 187.388 336.023C187.477 336.023 187.654 336.001 187.919 335.957C188.185 335.913 188.406 335.891 188.583 335.891V359.266C187.565 359.354 185.839 359.398 183.404 359.398C180.526 359.398 178.556 360.173 177.494 361.723C176.431 363.228 175.922 366.438 175.966 371.352V410H151.861ZM191.242 432.711V336.422H214.949L215.348 345.121H216.145C218.624 338.436 223.383 335.094 230.422 335.094C232.768 335.094 234.871 335.448 236.731 336.156C238.59 336.865 240.317 338.104 241.91 339.875C243.548 341.602 244.899 343.904 245.961 346.781C247.024 349.615 247.843 353.245 248.418 357.672C249.038 362.099 249.348 367.257 249.348 373.145C249.348 378.059 249.171 382.397 248.817 386.16C248.462 389.879 247.843 393.376 246.957 396.652C246.116 399.884 244.987 402.562 243.57 404.688C242.198 406.768 240.405 408.406 238.192 409.602C235.978 410.753 233.388 411.328 230.422 411.328C223.649 411.328 218.889 407.986 216.145 401.301H215.348V432.711H191.242ZM216.41 388.352C217.119 391.185 218.402 392.602 220.262 392.602C222.121 392.602 223.427 391.207 224.18 388.418C224.977 385.629 225.375 380.538 225.375 373.145C225.375 366.105 225.021 361.081 224.313 358.07C223.604 355.06 222.254 353.555 220.262 353.555C218.535 353.555 217.274 354.905 216.477 357.605C215.724 360.262 215.348 364.799 215.348 371.219V375.203C215.348 381.135 215.702 385.518 216.41 388.352ZM281.093 411.328C276.577 411.328 272.593 410.642 269.14 409.27C265.731 407.897 262.72 405.728 260.108 402.762C257.541 399.796 255.593 395.811 254.265 390.809C252.936 385.806 252.272 379.829 252.272 372.879C252.272 366.15 252.914 360.35 254.198 355.48C255.482 350.611 257.363 346.693 259.843 343.727C262.366 340.76 265.377 338.591 268.874 337.219C272.371 335.802 276.444 335.094 281.093 335.094C290.567 335.094 297.783 338.082 302.741 344.059C307.699 349.991 310.179 359.598 310.179 372.879C310.179 386.47 307.677 396.276 302.675 402.297C297.672 408.318 290.478 411.328 281.093 411.328ZM281.093 392.602C283.085 392.602 284.413 391.229 285.077 388.484C285.785 385.695 286.14 380.582 286.14 373.145C286.14 367.965 285.985 364.003 285.675 361.258C285.365 358.513 284.856 356.565 284.147 355.414C283.439 354.263 282.421 353.688 281.093 353.688C279.189 353.688 277.905 355.038 277.241 357.738C276.621 360.439 276.311 365.574 276.311 373.145C276.311 380.582 276.621 385.695 277.241 388.484C277.905 391.229 279.189 392.602 281.093 392.602ZM313.568 410V336.422H335.482L336.279 347.18H337.275C338.249 343.417 339.533 340.694 341.127 339.012C342.765 337.285 345.421 336.289 349.095 336.023C349.184 336.023 349.361 336.001 349.627 335.957C349.892 335.913 350.114 335.891 350.291 335.891V359.266C349.272 359.354 347.546 359.398 345.111 359.398C342.233 359.398 340.263 360.173 339.201 361.723C338.138 363.228 337.629 366.438 337.673 371.352V410H313.568ZM369.75 411.328C366.828 411.328 364.261 410.753 362.047 409.602C359.834 408.451 357.996 406.835 356.535 404.754C355.119 402.673 353.968 400.017 353.082 396.785C352.197 393.553 351.577 390.034 351.223 386.227C350.869 382.419 350.692 378.059 350.692 373.145C350.692 367.212 351.002 362.033 351.621 357.605C352.241 353.134 353.082 349.504 354.145 346.715C355.252 343.882 356.624 341.579 358.262 339.809C359.9 338.038 361.627 336.82 363.442 336.156C365.301 335.448 367.404 335.094 369.75 335.094C376.701 335.094 381.416 338.436 383.895 345.121H384.825L385.356 336.422H408.731V410H384.825V401.301H383.895C382.655 404.621 380.774 407.122 378.25 408.805C375.771 410.487 372.938 411.328 369.75 411.328ZM379.91 392.602C381.726 392.602 382.987 391.207 383.696 388.418C384.448 385.629 384.825 381.224 384.825 375.203V371.219C384.825 364.667 384.426 360.085 383.629 357.473C382.832 354.861 381.593 353.555 379.91 353.555C377.874 353.555 376.524 355.06 375.86 358.07C375.196 361.081 374.864 366.105 374.864 373.145C374.864 380.538 375.24 385.629 375.992 388.418C376.745 391.207 378.051 392.602 379.91 392.602ZM433.437 410C427.46 410 423.077 408.628 420.288 405.883C417.543 403.138 416.171 398.888 416.171 393.133V355.48L410.991 355.879V336.422L416.171 336.688V319.156L440.542 317.098V336.688L446.651 336.422V355.879L440.542 355.48V388.219C440.542 389.812 440.719 390.853 441.073 391.34C441.427 391.827 442.202 392.07 443.397 392.07H446.651V410H433.437ZM475.275 411.328C470.76 411.328 466.775 410.642 463.322 409.27C459.913 407.897 456.903 405.728 454.291 402.762C451.723 399.796 449.775 395.811 448.447 390.809C447.119 385.806 446.455 379.829 446.455 372.879C446.455 366.15 447.097 360.35 448.381 355.48C449.664 350.611 451.546 346.693 454.025 343.727C456.549 340.76 459.559 338.591 463.056 337.219C466.554 335.802 470.627 335.094 475.275 335.094C485.635 335.094 492.961 338.658 497.256 345.785C501.594 352.913 503.431 363.671 502.767 378.059H470.494C470.494 383.902 470.87 388.02 471.623 390.41C472.375 392.757 473.593 393.93 475.275 393.93C476.736 393.93 477.843 393.243 478.595 391.871C479.392 390.499 479.879 388.152 480.056 384.832H502.767C501.97 394.262 499.226 401.035 494.533 405.152C489.84 409.27 483.421 411.328 475.275 411.328ZM475.275 352.625C473.726 352.625 472.575 353.533 471.822 355.348C471.069 357.118 470.627 360.24 470.494 364.711H480.056C479.924 360.417 479.459 357.34 478.662 355.48C477.909 353.577 476.78 352.625 475.275 352.625ZM551.648 411.328C547.132 411.328 543.148 410.642 539.695 409.27C536.286 407.897 533.275 405.728 530.663 402.762C528.096 399.796 526.148 395.811 524.82 390.809C523.491 385.806 522.827 379.829 522.827 372.879C522.827 366.15 523.469 360.35 524.753 355.48C526.037 350.611 527.918 346.693 530.398 343.727C532.921 340.76 535.931 338.591 539.429 337.219C542.926 335.802 546.999 335.094 551.648 335.094C562.007 335.094 569.334 338.658 573.628 345.785C577.967 352.913 579.804 363.671 579.14 378.059H546.866C546.866 383.902 547.243 388.02 547.995 390.41C548.748 392.757 549.965 393.93 551.648 393.93C553.109 393.93 554.215 393.243 554.968 391.871C555.765 390.499 556.252 388.152 556.429 384.832H579.14C578.343 394.262 575.598 401.035 570.905 405.152C566.213 409.27 559.793 411.328 551.648 411.328ZM551.648 352.625C550.098 352.625 548.947 353.533 548.195 355.348C547.442 357.118 546.999 360.24 546.866 364.711H556.429C556.296 360.417 555.831 357.34 555.034 355.48C554.282 353.577 553.153 352.625 551.648 352.625ZM589.701 410L577.748 336.422H602.053L604.908 373.41L606.17 391.938H607.232L608.428 373.543L611.416 336.422H635.654L623.568 410H589.701ZM663.083 411.328C658.567 411.328 654.583 410.642 651.13 409.27C647.721 407.897 644.71 405.728 642.098 402.762C639.531 399.796 637.583 395.811 636.255 390.809C634.926 385.806 634.262 379.829 634.262 372.879C634.262 366.15 634.904 360.35 636.188 355.48C637.472 350.611 639.353 346.693 641.833 343.727C644.356 340.76 647.366 338.591 650.864 337.219C654.361 335.802 658.434 335.094 663.083 335.094C673.442 335.094 680.769 338.658 685.063 345.785C689.402 352.913 691.239 363.671 690.575 378.059H658.301C658.301 383.902 658.678 388.02 659.43 390.41C660.183 392.757 661.4 393.93 663.083 393.93C664.544 393.93 665.65 393.243 666.403 391.871C667.2 390.499 667.687 388.152 667.864 384.832H690.575C689.778 394.262 687.033 401.035 682.34 405.152C677.648 409.27 671.228 411.328 663.083 411.328ZM663.083 352.625C661.533 352.625 660.382 353.533 659.63 355.348C658.877 357.118 658.434 360.24 658.301 364.711H667.864C667.731 360.417 667.266 357.34 666.469 355.48C665.717 353.577 664.588 352.625 663.083 352.625ZM694.097 410V336.422H717.538L718.203 345.121H718.999C722.143 338.436 727.123 335.094 733.941 335.094C740.183 335.094 744.721 337.241 747.554 341.535C750.387 345.829 751.804 352.913 751.804 362.785V410H727.831V364.445C727.831 360.505 727.455 357.805 726.703 356.344C725.994 354.839 724.843 354.086 723.249 354.086C721.346 354.086 720.018 355.016 719.265 356.875C718.557 358.69 718.203 361.523 718.203 365.375V410H694.097ZM775.647 410C769.67 410 765.287 408.628 762.498 405.883C759.753 403.138 758.381 398.888 758.381 393.133V355.48L753.201 355.879V336.422L758.381 336.688V319.156L782.752 317.098V336.688L788.861 336.422V355.879L782.752 355.48V388.219C782.752 389.812 782.929 390.853 783.283 391.34C783.637 391.827 784.412 392.07 785.607 392.07H788.861V410H775.647ZM816.091 411.328C807.325 411.328 800.684 409.181 796.169 404.887C791.653 400.592 789.329 394.682 789.196 387.156H810.911C810.911 390.654 811.287 393.044 812.04 394.328C812.837 395.612 814.098 396.254 815.825 396.254C818.348 396.254 819.61 394.727 819.61 391.672C819.61 390.299 819.389 389.126 818.946 388.152C818.548 387.178 817.817 386.293 816.755 385.496C815.736 384.699 814.718 384.035 813.7 383.504C812.682 382.928 811.243 382.22 809.384 381.379C808.808 381.113 808.365 380.914 808.055 380.781C805.311 379.497 802.942 378.191 800.95 376.863C798.958 375.535 797.098 373.964 795.372 372.148C793.645 370.289 792.339 368.142 791.454 365.707C790.569 363.228 790.126 360.483 790.126 357.473C790.126 350.478 792.384 345.01 796.899 341.07C801.415 337.086 808.033 335.094 816.755 335.094C824.768 335.094 831.054 337.13 835.614 341.203C840.174 345.232 842.454 350.987 842.454 358.469H821.403C821.226 355.104 820.783 352.824 820.075 351.629C819.367 350.389 818.216 349.77 816.622 349.77C814.187 349.77 812.97 351.452 812.97 354.816C812.97 356.809 813.766 358.402 815.36 359.598C816.998 360.749 819.743 362.143 823.595 363.781C825.055 364.401 826.074 364.844 826.649 365.109C827.225 365.375 828.354 365.973 830.036 366.902C831.718 367.788 833.002 368.607 833.888 369.359C834.817 370.068 835.968 371.108 837.341 372.48C838.757 373.853 839.82 375.247 840.528 376.664C841.236 378.036 841.878 379.719 842.454 381.711C843.029 383.659 843.317 385.74 843.317 387.953C843.317 395.214 841.015 400.924 836.411 405.086C831.851 409.247 825.078 411.328 816.091 411.328Z" fill="black"/>
</svg>
