<?xml version="1.0" encoding="UTF-8"?> <svg xmlns="http://www.w3.org/2000/svg" xmlns:xlink="http://www.w3.org/1999/xlink" width="171px" height="50px" viewBox="0 0 171 50"><!-- Generator: sketchtool 61.1 (101010) - https://sketch.com --><title>6D2CB793-98A9-4ACA-A2CA-9195A0212FF7</title><desc>Created with sketchtool.</desc><g id="Asset-Artboard-Page" stroke="none" stroke-width="1" fill="none" fill-rule="evenodd"><g id="HUisHU_Logo_CMYK_Weiss" fill="#FFFFFF"><path d="M170.999997,44.8213029 C170.999997,42.3477101 168.99763,40.3424281 166.528841,40.3424281 C164.059097,40.3424281 162.057686,42.3477101 162.057686,44.8213029 C162.057686,47.2949915 164.059097,49.3002734 166.528841,49.3002734 C168.99763,49.3002734 170.999997,47.2949915 170.999997,44.8213029 Z M159.134898,33.3149869 L159.134898,12.5880917 L151.068086,12.5880917 L151.068086,33.629907 C151.068086,39.4543494 148.082218,42.4453724 143.158977,42.4453724 C138.234781,42.4453724 135.249869,39.3494079 135.249869,33.3675534 L135.249869,12.5880917 L127.183056,12.5880917 L127.183056,27.1193238 L111.112512,27.1231537 L111.112512,12.5880917 L103.0457,12.5880917 L103.0457,49.3193251 L111.112512,49.3193251 L111.112512,34.5743802 L127.199304,34.5624115 C127.550077,44.7354133 133.503652,49.8965988 143.053841,49.8965988 C152.901278,49.8965988 159.134898,44.4393558 159.134898,33.3149869 Z M97.8510145,30.6449162 L97.8510145,30.5399748 C97.8510145,25.3975562 93.2938386,23.5085143 89.3655683,22.1966503 C86.327228,21.1472358 83.6559086,20.4126456 83.6559086,18.838428 L83.6559086,18.7334866 C83.6559086,17.6316013 84.6510704,16.7919739 86.5891127,16.7919739 C88.6315265,16.7919739 91.4080777,17.7890135 94.1836731,19.4157018 L97.222109,13.9059881 C94.1836731,11.859534 90.3079708,10.6526115 86.7462435,10.6526115 C81.089343,10.6526115 76.4798858,13.8535174 76.4798858,19.573114 L76.4798858,19.6780554 C76.4798858,25.1352026 80.9321166,26.9717738 84.8606737,28.1261298 C87.9510086,29.0706986 90.6749917,29.6478766 90.6749917,31.3795064 L90.6749917,31.4844478 C90.6749917,32.7437453 89.627453,33.5833727 87.3223898,33.5833727 C84.7035429,33.5833727 81.5083585,32.4289209 78.4704006,30.2250546 L75.0657084,35.4724146 C78.7846622,38.4108711 83.1845161,39.7227351 87.112882,39.7227351 C93.1887024,39.7227351 97.8510145,36.88922 97.8510145,30.6449162 Z M71.2498432,4.47887486 C71.2498432,2.005282 69.2481456,0 66.7789743,0 C64.309803,0 62.3081054,2.005282 62.3081054,4.47887486 C62.3081054,6.95256347 64.309803,8.95774972 66.7789743,8.95774972 C69.2481456,8.95774972 71.2498432,6.95256347 71.2498432,4.47887486 Z M56.0885336,33.3149869 L56.0885336,12.5880917 L48.0221026,12.5880917 L48.0221026,33.629907 C48.0221026,39.4543494 45.0365215,42.4453724 40.1128981,42.4453724 C35.189179,42.4453724 32.2035979,39.3494079 32.2035979,33.3675534 L32.2035979,12.5880917 L24.137167,12.5880917 L24.137167,27.1193238 L8.06643096,27.1231537 L8.06643096,12.5880917 L0,12.5880917 L0,49.3193251 L8.06643096,49.3193251 L8.06643096,34.5743802 L24.1535109,34.5624115 C24.5040923,44.7354133 30.4578592,49.8965988 40.0081442,49.8965988 C49.8554867,49.8965988 56.0885336,44.4393558 56.0885336,33.3149869 Z M62.8619781,39.1980296 L70.8236551,39.1980296 L70.8236551,12.5925926 L62.8619781,12.5925926 L62.8619781,39.1980296 Z"></path></g></g></svg> 