<svg width="696" height="696" viewBox="0 0 696 696" fill="none" xmlns="http://www.w3.org/2000/svg">
<circle cx="348" cy="348" r="348" fill="#C2FF42"/>
<path d="M394.667 301.333C394.667 275.563 415.563 254.667 441.333 254.667C467.109 254.667 488 275.563 488 301.333C488 327.104 467.109 348 441.333 348C415.563 348 394.667 327.104 394.667 301.333Z" fill="black"/>
<path d="M394.667 301.333C394.667 275.563 415.563 254.667 441.333 254.667C467.109 254.667 488 275.563 488 301.333C488 327.104 467.109 348 441.333 348C415.563 348 394.667 327.104 394.667 301.333Z" fill="black" fill-opacity="0.2"/>
<path d="M254.667 254.667C228.896 254.667 208 275.563 208 301.333C208 327.104 228.896 348 254.667 348C280.437 348 301.333 327.104 301.333 301.333C301.333 275.563 280.437 254.667 254.667 254.667Z" fill="black"/>
<path d="M254.667 254.667C228.896 254.667 208 275.563 208 301.333C208 327.104 228.896 348 254.667 348C280.437 348 301.333 327.104 301.333 301.333C301.333 275.563 280.437 254.667 254.667 254.667Z" fill="black" fill-opacity="0.2"/>
<path d="M348 511.333C287.516 511.333 234.74 478.443 206.533 429.683C200.08 418.532 203.893 404.256 215.049 397.803C226.2 391.35 240.476 395.162 246.929 406.318C267.137 441.25 304.85 464.668 348.002 464.668C391.154 464.668 428.866 441.252 449.076 406.318C455.529 395.162 469.805 391.349 480.956 397.803C492.107 404.256 495.925 418.532 489.471 429.683C461.263 478.443 408.487 511.333 348.005 511.333H348Z" fill="black"/>
<path d="M348 511.333C287.516 511.333 234.74 478.443 206.533 429.683C200.08 418.532 203.893 404.256 215.049 397.803C226.2 391.35 240.476 395.162 246.929 406.318C267.137 441.25 304.85 464.668 348.002 464.668C391.154 464.668 428.866 441.252 449.076 406.318C455.529 395.162 469.805 391.349 480.956 397.803C492.107 404.256 495.925 418.532 489.471 429.683C461.263 478.443 408.487 511.333 348.005 511.333H348Z" fill="black" fill-opacity="0.2"/>
<path fill-rule="evenodd" clip-rule="evenodd" d="M348 628C502.64 628 628 502.64 628 348C628 193.36 502.64 68 348 68C193.36 68 68 193.36 68 348C68 502.64 193.36 628 348 628ZM348 581.333C476.864 581.333 581.333 476.864 581.333 348C581.333 219.136 476.864 114.667 348 114.667C219.136 114.667 114.667 219.136 114.667 348C114.667 476.864 219.136 581.333 348 581.333Z" fill="black"/>
<path fill-rule="evenodd" clip-rule="evenodd" d="M348 628C502.64 628 628 502.64 628 348C628 193.36 502.64 68 348 68C193.36 68 68 193.36 68 348C68 502.64 193.36 628 348 628ZM348 581.333C476.864 581.333 581.333 476.864 581.333 348C581.333 219.136 476.864 114.667 348 114.667C219.136 114.667 114.667 219.136 114.667 348C114.667 476.864 219.136 581.333 348 581.333Z" fill="black" fill-opacity="0.2"/>
</svg>
