<svg width="810" height="225" viewBox="0 0 810 225" fill="none" xmlns="http://www.w3.org/2000/svg">
<path d="M41.8047 173C30.7305 173 22.6094 170.457 17.4414 165.371C12.3555 160.285 9.8125 152.41 9.8125 141.746V71.9785L0.214844 72.7168V36.6641L9.8125 37.1562V4.67188L54.9707 0.857422V37.1562L66.291 36.6641V72.7168L54.9707 71.9785V132.641C54.9707 135.594 55.2988 137.521 55.9551 138.424C56.6113 139.326 58.0469 139.777 60.2617 139.777H66.291V173H41.8047ZM101.241 175.461C95.8272 175.461 91.0694 174.395 86.9678 172.262C82.8662 170.129 79.462 167.135 76.7549 163.279C74.1299 159.424 71.9971 154.502 70.3565 148.514C68.7159 142.525 67.5674 136.004 66.9112 128.949C66.2549 121.895 65.9268 113.814 65.9268 104.709C65.9268 93.7168 66.501 84.1191 67.6495 75.916C68.7979 67.6309 70.3565 60.9043 72.3252 55.7363C74.376 50.4863 76.919 46.2207 79.9541 42.9395C82.9893 39.6582 86.1885 37.4023 89.5518 36.1719C92.9971 34.8594 96.8936 34.2031 101.241 34.2031C114.12 34.2031 122.856 40.3965 127.45 52.7832H129.173L130.157 36.6641H173.47V173H129.173V156.881H127.45C125.153 163.033 121.667 167.668 116.991 170.785C112.397 173.902 107.147 175.461 101.241 175.461ZM120.067 140.762C123.431 140.762 125.769 138.178 127.081 133.01C128.476 127.842 129.173 119.68 129.173 108.523V101.141C129.173 89 128.435 80.5098 126.958 75.6699C125.481 70.8301 123.185 68.4102 120.067 68.4102C116.294 68.4102 113.792 71.1992 112.562 76.7773C111.331 82.3555 110.716 91.666 110.716 104.709C110.716 118.408 111.413 127.842 112.808 133.01C114.202 138.178 116.622 140.762 120.067 140.762ZM182.211 215.082V36.6641H226.139L226.877 52.7832H228.354C232.947 40.3965 241.766 34.2031 254.809 34.2031C259.156 34.2031 263.053 34.8594 266.498 36.1719C269.943 37.4844 273.143 39.7812 276.096 43.0625C279.131 46.2617 281.633 50.5273 283.602 55.8594C285.57 61.1094 287.088 67.8359 288.154 76.0391C289.303 84.2422 289.877 93.7988 289.877 104.709C289.877 113.814 289.549 121.854 288.893 128.826C288.236 135.717 287.088 142.197 285.447 148.268C283.889 154.256 281.797 159.219 279.172 163.156C276.629 167.012 273.307 170.047 269.205 172.262C265.104 174.395 260.305 175.461 254.809 175.461C242.258 175.461 233.44 169.268 228.354 156.881H226.877V215.082H182.211ZM228.846 132.887C230.158 138.137 232.537 140.762 235.982 140.762C239.428 140.762 241.848 138.178 243.242 133.01C244.719 127.842 245.457 118.408 245.457 104.709C245.457 91.666 244.801 82.3555 243.488 76.7773C242.176 71.1992 239.674 68.4102 235.982 68.4102C232.783 68.4102 230.445 70.9121 228.969 75.916C227.574 80.8379 226.877 89.2461 226.877 101.141V108.523C226.877 119.516 227.533 127.637 228.846 132.887ZM298.303 173C295.783 173 294.523 171.908 294.523 169.724C294.523 169.052 294.775 168.212 295.279 167.204C295.783 166.196 296.371 164.936 297.043 163.424L353.491 56.072C354.331 54.728 354.415 53.552 353.743 52.544C353.239 51.536 352.147 51.032 350.467 51.032H339.883C331.651 51.032 325.519 52.46 321.487 55.316C317.623 58.172 314.431 62.288 311.911 67.664L306.367 79.256C305.359 81.44 304.099 82.532 302.587 82.532C300.403 82.532 299.563 81.272 300.067 78.752L306.115 44.48C306.787 40.448 308.299 38.432 310.651 38.432C312.163 38.432 313.087 38.936 313.423 39.944C313.759 40.952 314.347 41.96 315.187 42.968C316.195 43.976 318.295 44.48 321.487 44.48H371.887C374.407 44.48 375.667 45.572 375.667 47.756C375.667 48.428 375.415 49.268 374.911 50.276C374.575 51.284 373.987 52.544 373.147 54.056L316.951 161.408C316.279 162.752 316.111 163.928 316.447 164.936C316.951 165.944 318.127 166.448 319.975 166.448H331.315C341.227 166.448 348.199 165.104 352.231 162.416C356.263 159.56 359.539 155.024 362.059 148.808L369.619 130.412C370.627 128.228 371.887 127.136 373.399 127.136C375.583 127.136 376.423 128.564 375.919 131.42L369.367 168.464C368.863 171.488 367.099 173 364.075 173H298.303ZM404.783 175.268C397.727 175.268 391.931 173.084 387.395 168.716C382.859 164.18 380.591 158.216 380.591 150.824C380.591 143.6 382.859 136.796 387.395 130.412C391.931 123.86 398.147 117.98 406.043 112.772C413.939 107.564 422.927 103.364 433.007 100.172C435.191 99.5 436.283 98.072 436.283 95.888V72.956C436.283 64.892 435.023 59.18 432.503 55.82C429.983 52.292 426.539 50.528 422.171 50.528C417.971 50.528 414.107 52.46 410.579 56.324C407.219 60.02 404.783 66.32 403.271 75.224C402.431 80.6 400.583 84.548 397.727 87.068C395.039 89.42 392.267 90.596 389.411 90.596C384.707 90.596 382.355 88.244 382.355 83.54C382.355 78.668 383.699 73.88 386.387 69.176C389.243 64.304 392.939 59.936 397.475 56.072C402.011 52.04 406.967 48.848 412.343 46.496C417.719 44.144 423.095 42.968 428.471 42.968C445.103 42.968 453.419 52.628 453.419 71.948V149.06C453.419 156.116 455.183 159.644 458.711 159.644C460.895 159.644 462.911 158.216 464.759 155.36C466.607 152.336 467.531 147.296 467.531 140.24C467.531 137.552 468.623 136.208 470.807 136.208C472.823 136.208 473.831 137.636 473.831 140.492C473.831 152.756 471.647 161.66 467.279 167.204C463.079 172.58 458.291 175.268 452.915 175.268C448.883 175.268 445.691 173.672 443.339 170.48C440.987 167.12 439.391 163.172 438.551 158.636C438.383 156.956 437.627 156.116 436.283 156.116C435.107 155.948 433.931 156.704 432.755 158.384C428.723 163.928 424.607 168.128 420.407 170.984C416.207 173.84 410.999 175.268 404.783 175.268ZM411.587 163.676C415.955 163.676 419.987 162.164 423.683 159.14C427.379 155.948 430.403 151.748 432.755 146.54C435.107 141.332 436.283 135.452 436.283 128.9V110.504C436.283 107.312 434.519 106.388 430.991 107.732C420.743 111.428 412.763 116.552 407.051 123.104C401.507 129.488 398.735 137.216 398.735 146.288C398.735 157.88 403.019 163.676 411.587 163.676ZM508.963 60.608C515.851 48.848 524.167 42.968 533.911 42.968C539.455 42.968 543.571 44.648 546.259 48.008C548.947 51.2 550.291 54.812 550.291 58.844C550.291 62.036 549.451 64.64 547.771 66.656C546.259 68.672 543.823 69.68 540.463 69.68C537.775 69.68 535.759 69.092 534.415 67.916C533.239 66.572 532.231 65.06 531.391 63.38C530.719 61.7 529.879 60.272 528.871 59.096C527.863 57.752 526.183 57.08 523.831 57.08C520.807 57.08 517.951 58.928 515.263 62.624C512.575 66.152 510.307 70.94 508.459 76.988C506.779 83.036 505.939 89.924 505.939 97.652V156.116C505.939 159.644 506.443 162.164 507.451 163.676C508.627 165.188 510.979 166.112 514.507 166.448L521.311 167.204C523.159 167.54 524.083 168.464 524.083 169.976C524.083 171.992 522.823 173 520.303 173H477.715C475.195 173 473.935 172.076 473.935 170.228C473.935 168.716 475.027 167.708 477.211 167.204L480.235 166.7C483.763 166.028 486.031 165.02 487.039 163.676C488.215 162.164 488.803 159.644 488.803 156.116V71.444C488.803 68.42 488.299 66.404 487.291 65.396C486.451 64.22 484.855 63.464 482.503 63.128L477.211 62.372C475.027 62.204 473.935 61.28 473.935 59.6C473.935 58.256 475.279 57.332 477.967 56.828C483.175 55.988 487.123 54.644 489.811 52.796C492.667 50.948 495.607 48.68 498.631 45.992C500.143 44.48 501.403 43.724 502.411 43.724C503.923 43.724 504.679 44.732 504.679 46.748V60.356C504.679 61.532 505.183 62.288 506.191 62.624C507.199 62.792 508.123 62.12 508.963 60.608ZM571.152 175.268C564.096 175.268 558.3 173.084 553.764 168.716C549.228 164.18 546.96 158.216 546.96 150.824C546.96 143.6 549.228 136.796 553.764 130.412C558.3 123.86 564.516 117.98 572.412 112.772C580.308 107.564 589.296 103.364 599.376 100.172C601.56 99.5 602.652 98.072 602.652 95.888V72.956C602.652 64.892 601.392 59.18 598.872 55.82C596.352 52.292 592.908 50.528 588.54 50.528C584.34 50.528 580.476 52.46 576.948 56.324C573.588 60.02 571.152 66.32 569.64 75.224C568.8 80.6 566.952 84.548 564.096 87.068C561.408 89.42 558.636 90.596 555.78 90.596C551.076 90.596 548.724 88.244 548.724 83.54C548.724 78.668 550.068 73.88 552.756 69.176C555.612 64.304 559.308 59.936 563.844 56.072C568.38 52.04 573.336 48.848 578.712 46.496C584.088 44.144 589.464 42.968 594.84 42.968C611.472 42.968 619.788 52.628 619.788 71.948V149.06C619.788 156.116 621.552 159.644 625.08 159.644C627.264 159.644 629.28 158.216 631.128 155.36C632.976 152.336 633.9 147.296 633.9 140.24C633.9 137.552 634.992 136.208 637.176 136.208C639.192 136.208 640.2 137.636 640.2 140.492C640.2 152.756 638.016 161.66 633.648 167.204C629.448 172.58 624.66 175.268 619.284 175.268C615.252 175.268 612.06 173.672 609.708 170.48C607.356 167.12 605.76 163.172 604.92 158.636C604.752 156.956 603.996 156.116 602.652 156.116C601.476 155.948 600.3 156.704 599.124 158.384C595.092 163.928 590.976 168.128 586.776 170.984C582.576 173.84 577.368 175.268 571.152 175.268ZM577.956 163.676C582.324 163.676 586.356 162.164 590.052 159.14C593.748 155.948 596.772 151.748 599.124 146.54C601.476 141.332 602.652 135.452 602.652 128.9V110.504C602.652 107.312 600.888 106.388 597.36 107.732C587.112 111.428 579.132 116.552 573.42 123.104C567.876 129.488 565.104 137.216 565.104 146.288C565.104 157.88 569.388 163.676 577.956 163.676ZM643.329 224.66C640.809 224.66 639.549 223.736 639.549 221.888C639.549 220.04 640.641 219.032 642.825 218.864L646.353 218.36C649.881 217.856 652.149 216.848 653.157 215.336C654.333 213.824 654.921 211.304 654.921 207.776V71.444C654.921 68.42 654.417 66.404 653.409 65.396C652.569 64.22 650.973 63.464 648.621 63.128L643.329 62.372C641.145 62.204 640.053 61.28 640.053 59.6C640.053 58.256 641.397 57.332 644.085 56.828C649.293 55.988 653.241 54.644 655.929 52.796C658.785 50.948 661.725 48.68 664.749 45.992C666.261 44.48 667.521 43.724 668.529 43.724C670.041 43.724 670.797 44.732 670.797 46.748V54.56C670.797 55.736 671.301 56.576 672.309 57.08C673.317 57.416 674.493 56.912 675.837 55.568L678.609 52.796C681.969 49.436 685.413 47 688.941 45.488C692.469 43.808 696.501 42.968 701.037 42.968C708.765 42.968 715.569 45.572 721.449 50.78C727.497 55.82 732.201 62.876 735.561 71.948C739.089 81.02 740.853 91.688 740.853 103.952C740.853 117.896 738.669 130.244 734.301 140.996C729.933 151.748 723.885 160.148 716.157 166.196C708.597 172.244 699.861 175.268 689.949 175.268C684.909 175.268 680.457 174.344 676.593 172.496C673.569 171.152 672.057 172.076 672.057 175.268V207.776C672.057 211.304 672.561 213.656 673.569 214.832C674.745 216.176 677.097 217.1 680.625 217.604L689.949 218.864C691.797 219.2 692.721 220.124 692.721 221.636C692.721 223.652 691.461 224.66 688.941 224.66H643.329ZM690.705 168.968C700.113 168.968 707.673 163.424 713.385 152.336C719.265 141.248 722.205 126.296 722.205 107.48C722.205 90.176 719.685 76.988 714.645 67.916C709.605 58.844 702.465 54.308 693.225 54.308C687.513 54.308 682.557 56.66 678.357 61.364C674.157 66.068 672.057 72.62 672.057 81.02V144.524C672.057 152.084 673.737 158.048 677.097 162.416C680.625 166.784 685.161 168.968 690.705 168.968ZM757.214 105.527C752.041 98.6062 749.454 89.2 749.454 77.3078C749.454 65.4156 752.041 56.0262 757.214 49.1395C762.421 42.2191 769.912 38.759 779.688 38.759C786.205 38.759 791.748 40.3715 796.317 43.5965C800.886 46.7879 804.296 51.2559 806.546 57.0004C808.797 62.7113 809.923 69.4805 809.923 77.3078C809.923 89.2336 807.319 98.6566 802.112 105.577C796.905 112.464 789.43 115.907 779.688 115.907C769.912 115.907 762.421 112.447 757.214 105.527ZM753.284 77.3078C753.284 88.7297 755.618 97.4473 760.288 103.461C764.991 109.44 771.458 112.43 779.688 112.43C787.952 112.43 794.419 109.44 799.089 103.461C803.758 97.4473 806.093 88.7297 806.093 77.3078C806.093 65.7852 803.758 57.0508 799.089 51.1047C794.453 45.125 787.986 42.1352 779.688 42.1352C771.458 42.1352 764.991 45.125 760.288 51.1047C755.618 57.0844 753.284 65.8187 753.284 77.3078ZM768.35 77.3078C768.35 73.9484 768.535 71.0426 768.905 68.5902C769.308 66.1379 769.946 63.9879 770.819 62.1402C771.693 60.259 772.902 58.848 774.448 57.9074C775.993 56.9668 777.874 56.4965 780.091 56.4965C786.81 56.4965 790.489 61.0316 791.127 70.102H786.692C786.39 66.5746 785.718 64.0551 784.677 62.5434C783.669 60.998 782.141 60.2254 780.091 60.2254C778.512 60.2254 777.202 60.6957 776.161 61.6363C775.119 62.5434 774.28 64.2902 773.641 66.877C773.003 69.4637 772.684 72.9406 772.684 77.3078C772.684 81.6414 773.003 85.1016 773.641 87.6883C774.28 90.275 775.119 92.0387 776.161 92.9793C777.202 93.8863 778.512 94.3398 780.091 94.3398C782.174 94.3398 783.719 93.584 784.727 92.0723C785.735 90.527 786.39 88.0242 786.692 84.5641H791.127C790.724 89.2336 789.615 92.6602 787.801 94.8437C786.021 96.9937 783.451 98.0687 780.091 98.0687C775.791 98.0687 772.751 96.3219 770.971 92.8281C769.224 89.3344 768.35 84.1609 768.35 77.3078Z" fill="black"/>
</svg>
